<?xml version="1.0" encoding="UTF-8"?>
<svg id="Layer_2" data-name="Layer 2" xmlns="http://www.w3.org/2000/svg" viewBox="0 0 385.25 119.46">
  <defs>
    <style>
      .cls-1 {
        fill: #231f20;
      }

      .cls-2 {
        fill: #65cbe4;
      }
    </style>
  </defs>
  <g id="SCOOP">
    <g>
      <g>
        <path class="cls-1" d="M11.95,40.84l1.12-.78,1.32.11c.75,0,1.39-.17,1.92-.5s.96-.52,1.29-.56.73-.22,1.19-.56,1.13-.56,2.02-.7c.88-.13,1.52-.36,1.92-.7.4-.33.85-.55,1.36-.64.51-.09,1.09-.25,1.75-.47l6.02-1.56c.09,0,.33.07.73.22h.26c.53,0,1.05-.18,1.55-.53.51-.35,1.11-.53,1.82-.53.44,0,1.3-.22,2.58-.67l.4.33c.71-.67,1.3-1,1.79-1h.4c.09,0,.48.07,1.19.22,1.1-.3,2.01-.44,2.71-.44l1.52-.11c.09,0,.22.04.4.11.35-.33.84-.54,1.46-.61h.73l2.71-.56.79.22c.53-.37,1.34-.56,2.45-.56h.66l.66.11c.09,0,.49-.11,1.22-.33s2.5-.33,5.32-.33l1.72.22c1.1-.37,1.7-.56,1.78-.56l1.85.33.73-.22h.26c.09,0,.31.07.66.22h.13l4.76-.56c.09,0,.26.04.53.11.35-.26.62-.39.79-.39l1.26.28c.35,0,.97-.2,1.85-.61l.4.33,4.5-.45,1.65.11,1.46-.22c1.45,0,2.54.32,3.27.97.73.65,1.09,1.31,1.09,1.98l.26,1.73-.4.95-.13,1.11c-.22.45-.55.74-.99.89,0,.08-.2.16-.6.25-.4.09-.79.25-1.19.47-.4.22-1.7.33-3.9.33-1.1,0-1.81-.29-2.11-.86-.31-.57-.64-.9-.99-.97l-2.84-1c-.09-.07-.35-.11-.79-.11h-.53l-2.71.22c-.09,0-.33-.04-.73-.11-.57.22-.88.33-.93.33l-4.89-.22-1.98.11-1.39-.22c-.18,0-.49.06-.93.17s-1.37.2-2.78.28c-1.41.07-2.11.44-2.11,1.11,0,.41.19.85.56,1.33.37.48.56.87.56,1.17-.66.78-.99,1.28-.99,1.5-.18.11-.48.35-.92.72s-1.26.96-2.45,1.75c-1.19.8-2,1.53-2.45,2.2-.44.67-.97,1-1.59,1-.79.63-1.34,1.21-1.65,1.72l-.53.44c-.09.08-.13.24-.13.5,0,.22-.13.45-.4.67l-.6,1.33c-.31.11-1.21,1.08-2.71,2.89l-.79.33-.79.78h-.93c-.4,0-.59.22-.59.67l.26,1.61c-.66.48-1.19,1.13-1.59,1.95l-.79,1.11c-.93.78-1.39,1.21-1.39,1.28,0,.19-.44.98-1.32,2.39l-.13.56c0,.63-1.54,2.45-4.63,5.45-.44.71-.71,1.78-.79,3.23-1.32,2.19-2.22,3.25-2.71,3.17-.09,1.41-.36,2.56-.83,3.45-.46.89-1.06,2.2-1.79,3.92s-1.49,2.96-2.28,3.7l-.26.44c-.18.3-.4.59-.66.89-.09,1-.51,2.6-1.26,4.78l-.4,2.39-1.32,3.12c-.13.22-.2.45-.2.67,0,.15.14.44.43.86.29.43.43.83.43,1.2,0,.52-.11.94-.33,1.25-.22.32-.33.73-.33,1.25,0,1.15-.73,1.91-2.18,2.28h-.53l-1.39.11c-1.85,0-3.53-.74-5.03-2.22s-2.25-3.52-2.25-6.12c0-.15.13-.71.4-1.7.26-.98.42-1.62.46-1.92.04-.3.15-.6.33-.92s.26-.77.26-1.36c0-1.82.54-3.39,1.62-4.73,1.08-1.33,1.8-2.3,2.15-2.89.09-.26.24-.43.46-.5-.13-.3-.2-.67-.2-1.11,0-1.08.55-1.95,1.65-2.62.09-.3.24-.64.46-1.03.22-.39.68-1.33,1.39-2.84.7-1.5,1.63-2.38,2.78-2.64-.04-.07.22-.37.79-.89l-.26-1.95c0-.3.4-.8,1.19-1.5l1.12-1.56c.18-.63.75-1.21,1.72-1.72.26-.37.55-.59.86-.67.04-.15.23-.61.56-1.39s1.04-1.75,2.12-2.92,2.12-2.38,3.11-3.64,1.9-1.91,2.71-1.95c.82-.04,1.27-.43,1.36-1.17l.4-2.06c1.28-.93,2.05-1.58,2.31-1.95l.93-.89c.18-.52.41-.86.69-1.03.29-.17.65-.51,1.09-1.03.44-.52.99-.98,1.65-1.39.57-1.52,1.87-2.84,3.9-3.95l1.06-.95c.75-.89,1.37-1.49,1.85-1.81.48-.31.85-.73,1.09-1.25.24-.52.72-.91,1.42-1.17s1.06-.56,1.06-.89c0-.15-.18-.22-.53-.22s-.95.11-1.79.33h-.53l-1.19.22h-.4l-1.12-.22c-.79.22-1.41.33-1.85.33-.09.08-.38.24-.86.5h-1.46l-.79.67-.6.11-1.72-.22c-.53,0-1.17.22-1.92.67,0,.07-.72.2-2.15.39s-2.79.53-4.07,1.03-2.05.75-2.31.75l-1.19-.22h-.13c-.57,0-1.1.24-1.59.72s-1.19.78-2.12.89h-.79c-.66,0-1.56.22-2.68.67s-1.73.67-1.82.67l-1.19-.11c-.53.3-.98.5-1.36.61s-.74.29-1.09.53-.71.42-1.06.53-.76.32-1.23.61c-.46.3-.83.45-1.09.45h-.26l-.79-.11c-.31,0-.71.23-1.19.7-.49.46-.94.75-1.36.86s-.82.29-1.19.53c-.38.24-.76.38-1.16.42-.22.19-.53.59-.93,1.22s-.91,1.18-1.52,1.64c-.62.46-1.03.83-1.23,1.08-.2.26-.39.39-.56.39-2.16,0-3.24-1.13-3.24-3.39l1.32-2.39c.93-1.89,2.34-3.04,4.23-3.45.48,0,1.74-.41,3.77-1.22l2.58-.95.05.07Z"/>
        <path class="cls-1" d="M99.7,90.07l1.05-.78c.66,0,1.05-.25,1.19-.75.13-.5.6-.9,1.42-1.2.81-.3,1.57-.9,2.28-1.81.7-.91,1.43-1.36,2.18-1.36.26,0,.57.19.92.56.35.37.53.67.53.89,0,1.22-.44,2.49-1.32,3.78l-.26,1.56-.46.72c-.66.3-1.09.61-1.29.95-.2.33-.72.74-1.55,1.22l-.66.78c-.97.26-1.62.69-1.95,1.28s-.79.93-1.39,1c-.6.08-1.25.45-1.95,1.11-.44.19-.97.35-1.59.5l-.13.56c-.44.37-1.14.67-2.08.89-.95.22-1.65.44-2.12.64-.46.2-.78.31-.96.31-.84,0-1.61-.14-2.31-.42s-1.43-.45-2.18-.53c-.26-.22-.42-.46-.46-.72-.04-.26-.26-.6-.66-1.03-.4-.43-.59-1.01-.59-1.75l.26-1.06c0-.15-.11-.33-.33-.56-.22-.22-.33-.41-.33-.56s.04-.26.13-.33c.09-.07.13-.19.13-.33,0-.19-.04-.39-.13-.61-.09-.22-.13-.41-.13-.56l.4-2.73c0-.22-.09-.33-.26-.33s-.5.19-.96.56-1,.56-1.62.56c-.35.22-.64.69-.86,1.39-.35.37-.79.71-1.32,1l-.26.33c-.09.26-.42.47-.99.64s-.97.38-1.19.64l-.66.56-1.26-.11c-.09.08-.33.4-.73.97-.4.58-.9,1.05-1.52,1.42l-5.03,3.45c-.53.3-1.3.67-2.31,1.11l-.4.33c-3.53,1.97-6.02,2.95-7.47,2.95-1.19,0-2.58-.28-4.17-.83-1.59-.56-2.45-1.22-2.58-2l-.66-2.28c-.4-.52-.6-1.24-.6-2.17,0-.45.04-.74.13-.89v-.33l-.13-1.84c0-.44.42-.67,1.26-.67l-.13-1.5c0-.15.39-.73,1.16-1.75s1.29-1.6,1.55-1.75l.66-.72c-.04-.45.26-.92.93-1.42.66-.5,1.19-1.01,1.59-1.53s1.15-1.09,2.25-1.72l1.99-1.67c1.54-1.3,3.22-2.34,5.03-3.12.26-.07.8-.45,1.62-1.11.82-.67,1.74-1.16,2.78-1.47s2.05-.71,3.05-1.2,1.78-.72,2.35-.72h.53c.18,0,1.35-.46,3.51-1.39h.4c.18,0,.59.15,1.26.45h.13l1.06-.45c.18-.07.4-.11.66-.11,2.74,0,4.24,1.59,4.5,4.78.09.67.31,1,.66,1,.44,0,1.07-.68,1.89-2.03.82-1.35,2.55-2.03,5.2-2.03,1.9,0,2.84,1.02,2.84,3.06,0,2.41-1.28,4.69-3.84,6.84-.18.3-.31.63-.4,1l-.93,2.28v.11c0,.22-.19.53-.56.92-.38.39-.56.73-.56,1.03l.13,1.39-.26,1.56c0,.71.15,1.17.46,1.39,1.41-.3,2.43-.79,3.07-1.47.64-.69,1.09-1.07,1.35-1.14l.66-.22c.4-.56.86-1.02,1.38-1.39l-.04-.02ZM77.73,90.07c.18-.82.72-1.44,1.62-1.86.9-.43,1.44-.86,1.62-1.31.84-.52,2.04-1.45,3.6-2.78,1.57-1.33,2.35-2.15,2.35-2.45,0-.11-.09-.17-.26-.17h-.13l-.53.28-1.19-.11-1.26.11-.93-.39-.86.11-1.32-.22c-.71,0-1.31.12-1.82.36-.51.24-1.48.51-2.91.81-1.43.3-2.72.81-3.87,1.53s-1.98,1.08-2.51,1.08c-.31.56-1.35,1.35-3.11,2.39-1.06.3-1.74.95-2.05,1.95-1.15.78-1.72,1.22-1.72,1.34l-.46.95c-.35.26-.79.47-1.32.64-.53.17-.84.56-.93,1.17-.09.61-.39,1.17-.89,1.67-.51.5-.76.9-.76,1.2,0,1.82.42,2.73,1.26,2.73.35,0,1.09-.19,2.22-.58s1.77-.66,1.95-.81.53-.3,1.06-.45l1.26-.56c.18-.15.37-.24.6-.28.22-.04.44-.16.66-.36.22-.2.62-.43,1.19-.67.57-.24,1.01-.57,1.32-.97.75-.37,1.96-.95,3.64-1.72l1.39-.89c.97-.37,1.56-.69,1.79-.95.22-.26.66-.52,1.32-.78h-.02Z"/>
        <path class="cls-1" d="M104.96,88.13v-.22l.4-.33c0-.22.25-.58.76-1.08s.83-.9.96-1.2c.13-.3.35-.52.66-.67.31-.15.58-.42.82-.81.24-.39.76-.77,1.55-1.14l6.74-7.18c.75-.78,1.3-1.32,1.65-1.61,1.45-1.52,2.62-3.34,3.5-5.45.18-.22.44-.45.79-.67,1.1-1.82,2.12-3.88,3.05-6.18l.66-.89c.04-.11.42-.71,1.13-1.81.71-1.09,1.23-1.79,1.56-2.09s.65-.98.96-2.06l1.46-2.45c.4-.74.99-1.93,1.79-3.56,1.1-.33,1.65-.54,1.65-.61,0-.15-.07-.31-.2-.5-.13-.19-.24-.35-.33-.5.17-.52.53-.95,1.06-1.28l.26-.22c0-.15.18-.45.53-.89l.13-.33c.79-1.48,1.82-2.73,3.08-3.73s2.46-1.5,3.6-1.5c1.06,0,1.65.33,1.79,1,.13.67.34,1.22.63,1.64.29.43.43.86.43,1.31v1.39l-.4,4.79c0,.07.04.22.13.44-.4.3-.64.69-.73,1.17l-2.71,6.12c-.22.04-.68.61-1.39,1.72l-.99,1.61c-1.06,1.71-1.87,2.69-2.45,2.95l-.4.45c-.49.59-.9.89-1.26.89,0,.93-.39,1.7-1.16,2.31s-1.36,1.3-1.75,2.06c-.4.76-1.15,1.36-2.25,1.81-.35.59-.79,1.24-1.32,1.95l-2.98,3.39c-.79.93-1.4,2.05-1.82,3.37-.42,1.32-.85,2.25-1.29,2.81l-.26.56c-1.01.52-1.52.83-1.52.95,0,.19-.09.78-.26,1.78-.35.78-.57,1.21-.66,1.28l.13,1.22-.86.11c-.09.07-.22.39-.4.95v1.11l.13.11c.18,0,.37-.26.6-.78.62-.37,1.41-.76,2.38-1.17l.46-.22c.35-.89.71-1.45,1.06-1.67l1.32-1.5,1.92-1.39c1.81-1.48,2.71-2.28,2.71-2.39,0-.07.04-.15.13-.22l.93.11.46-.22-.2-1s.37-.26.99-.67l2.05-1.73,1.06-.67c.35-.26.8-.59,1.36-1,.55-.41,1-.61,1.36-.61l.79.22c.53-1.11,1.7-2,3.51-2.67s2.87-1,3.18-1l3.77.72c.35.3,1.11.73,2.28,1.31s1.75,1.99,1.75,4.26c0,.22-.27.8-.79,1.72l.13,1c0,.22-.35.61-1.06,1.17l-.4,1.11-3.84,2.95c-.44.26-.89.45-1.36.56s-.94.33-1.42.67c-.49.33-1.57.84-3.24,1.53-1.68.69-2.51,1.25-2.51,1.7,0,.15.3.57.89,1.25.59.69,1.02,1.27,1.29,1.75.26.48.76,1.04,1.49,1.67.73.63,1.36.98,1.88,1.06.53.07,1.08.19,1.66.33.04-.07.44-.23,1.19-.47s1.3-.51,1.65-.81l.93-.22c.62-.07,1.05-.3,1.29-.67.24-.37.87-.81,1.88-1.31s1.82-1.08,2.42-1.72c.6-.65,1.13-.97,1.62-.97h.79c.62,0,.97-.37,1.06-1.11,1.19-.44,2.05-.92,2.58-1.42s1.13-.9,1.79-1.2l.4-.22c1.19-1.08,2.18-1.61,2.98-1.61.44,0,.75.19.93.56-.35,1.22-.53,2.08-.53,2.56,0,.33-.25,1-.76,2s-.78,1.5-.83,1.5l-.73-.22h-.13c-.26,0-.53.13-.79.39s-.53.43-.79.5-.54.3-.83.67c-.29.37-.74.66-1.36.86-.62.2-1.11.49-1.49.86s-.65.61-.83.72c-.18.11-.35.25-.53.42s-.38.31-.6.42-.5.33-.83.67c-.33.33-.76.61-1.29.83s-.94.57-1.22,1.03c-.29.46-.66.79-1.12.97s-1.11.5-1.95.95l-1.79,1.06c-.44.22-.71.33-.79.33h-.2l-.66-.11c-.18,0-.26.11-.26.33-.53.63-1.01.95-1.46.95-.49,0-1.09.13-1.82.39-.73.26-1.27.39-1.62.39-.62,0-1.79-.19-3.5-.56-.35-.33-.75-.57-1.19-.72s-.99-.83-1.65-2.06l-.93-.67c-.75-.45-1.96-2.34-3.64-5.67l-.59-.67c-1.41-.26-2.12-.83-2.12-1.72,0-.19.26-.72.79-1.61l.66-.33c.26-.45.58-.7.96-.78.37-.07.69-.34.96-.81.26-.46.66-.7,1.19-.7h.26c.62-.52,1.22-.92,1.82-1.2s1.08-.56,1.46-.86c.37-.3,1.34-.67,2.91-1.11,1.56-.45,2.35-1.85,2.35-4.23,0-.22-.22-.37-.66-.45-1.28.37-2.23.85-2.84,1.45-.88.07-1.57.45-2.05,1.14-.49.69-.93,1.03-1.32,1.03l-1.26-.11c-.26,0-.53.31-.79.92-.26.61-.62.92-1.06.92h-.53l-.86.33-.26.89c-1.02.93-1.83,1.39-2.45,1.39l-.53,1.28c-.71.22-1.52.78-2.45,1.67l-.4.22c-.35.33-.62.61-.79.83-.18.22-.44.33-.79.33-.57.3-1.08.91-1.52,1.84-.53,0-.88.34-1.06,1.03s-.55,1.03-1.12,1.03h-.53c-.44.85-.82,1.38-1.12,1.58-.31.21-.66.51-1.06.92s-.71.82-.93,1.22c-.22.41-.66.83-1.32,1.28s-1.17.82-1.52,1.11l-1.06.56c-.57.33-.95.58-1.12.72-.18.15-.4.22-.66.22-.44,0-1.07-.29-1.88-.86-.82-.58-1.22-1.01-1.22-1.31,0-2.15.22-3.67.66-4.56l1.79-3.89c.53-1.19,1.16-2.22,1.88-3.12.73-.89,1.09-1.52,1.09-1.89,0-.52-.22-.78-.66-.78-1.54,1.3-2.56,2.06-3.04,2.28-2.51-.26-3.77-.69-3.77-1.28h-.02Z"/>
        <path class="cls-1" d="M171.12,81.89l.93.33c.09-.63.51-1.17,1.26-1.61h.53c.44,0,1.02-.5,1.73-1.5l1.13-.56c.18.08.44.11.8.11.26,0,.52-.15.76-.45.24-.3.85-.87,1.83-1.72h.27c.27,0,.59-.17.96-.5.38-.33.88-.5,1.5-.5l2.26-.5c.71-.15,1.1-.22,1.19-.22.4-.11,1.37.57,2.91,2.03,1.54,1.47,2.31,2.88,2.31,4.26,0,.78-.49,1.24-1.45,1.39l-.33.22v1.11l-1.12,2.06c-.31.56-.68.91-1.12,1.06-.4.59-.68,1-.86,1.22l-.93.11-.4.33v1.39c-.4.45-.97,1.42-1.72,2.92s-1.12,2.46-1.12,2.87c0,.71.18,1.06.53,1.06.26,0,.53-.09.79-.28s.63-.4,1.09-.64c.46-.24.8-.49,1.02-.75s.68-.49,1.39-.7c.71-.2,1.37-.58,1.98-1.14.62-.56,1.06-.93,1.32-1.11s.55-.44.86-.75c.31-.32.51-.47.59-.47.26,0,.68-.07,1.26-.22.09-.41.17-.7.26-.89l1.59-.67,3.83-2.89.53-.56c.71-.15,1.15-.26,1.32-.33.35-1,.95-1.72,1.78-2.17,0-.15.22-.26.66-.33.35-.59.8-1.07,1.35-1.42s1-.79,1.36-1.31l1.52-1.06c.44-.15.75-.37.92-.67,2.29-1.71,3.71-2.68,4.26-2.92.55-.24,1.44-.36,2.68-.36s2.24.4,3.01,1.2c.77.8,1.61,1.4,2.51,1.81.9.41,1.36,1.19,1.36,2.34,0,1.08-.99,3.13-2.98,6.18-1.28,3.19-1.94,5.15-1.98,5.87s-.24,1.14-.6,1.25c-.35.11-.53.24-.53.39v.22c0,.89.18,1.33.53,1.33.26,0,.63-.19,1.09-.56s1.4-.78,2.81-1.22l.59.11c1.27-1.63,2.13-2.51,2.57-2.64s.88-.46,1.32-1,.98-.83,1.62-.86c.64-.04,1.04-.13,1.22-.28.04-.89.91-1.89,2.6-3s2.67-1.67,2.93-1.67c.44,0,.79.28,1.05.83.26.56.54.94.82,1.14.29.2.43.38.43.53v1c0,.48-.29.8-.86.95-.44.82-.84,1.3-1.19,1.45l-1.19-.11c-.22.22-.41.43-.56.61-.15.19-.25.26-.3.22-.35.08-.98.57-1.88,1.47-.9.91-1.71,1.66-2.41,2.25l-.26.33c-.35.22-.68.37-.99.45l-1.19.83c-.44-.22-.7-.33-.79-.33s-.28.15-.56.44c-.29.3-.86.68-1.72,1.14-.86.46-1.51.99-1.95,1.59l-1.06.89-1.39.17c-.13,0-.35.17-.66.5l-1.19,1.28c-.57.63-1.47.95-2.71.95-.26,0-.61-.19-1.02-.58-.42-.39-.81-.72-1.19-1s-1.21-1.11-2.51-2.5c-1.3-1.39-1.95-2.12-1.95-2.2l.4-1.95-.13-1.33c0-.26.21-.66.63-1.2s.63-.83.63-.86l-.13-2.17c.09-.07.18-.18.26-.33l.93-1.28c-.09-.37-.13-.78-.13-1.22l.26-1.84c-.79.3-1.49.9-2.08,1.81-.6.91-1.38,1.36-2.35,1.36-.84,1.26-1.48,1.87-1.92,1.84-.18.15-.31.3-.4.45l-.93.45-1.12-.11-.4,1.39c-.97.45-1.6.84-1.88,1.2-.29.35-.74.71-1.36,1.08l-1.12.89h-1.06c-.18,1-.86,1.84-2.05,2.5l-.53.56-1.19-.11c-.44,1.19-.99,1.91-1.66,2.17-.75,0-1.78.58-3.08,1.72s-2.22,1.72-2.75,1.72c-3.84,0-6.95-2.02-9.33-6.06-.09-.15-.3-.43-.63-.83-.33-.41-.5-1.04-.5-1.89,0-1.45.23-2.43.69-2.95.46-.52,1.06-1.49,1.79-2.92.73-1.43,1.27-2.05,1.62-1.86.09-.15.13-.37.13-.67.71-.7,1.06-1.24,1.06-1.61,0-.15-.09-.22-.26-.22-.09,0-.35.11-.79.33l-.93.33c-.4.08-.69.22-.86.45-.18.22-.49.44-.93.64-.44.21-.8.38-1.06.53h-.2c-.27-.22-.44-.33-.53-.33-.27.59-.49.96-.66,1.11l-.8.11c-.98.85-1.6,1.28-1.86,1.28-.18,0-.58-.13-1.2-.39s-.93-.52-.93-.78l.47-2.17v-1c0-.07.18-.22.53-.45.09,0,.44-.4,1.06-1.2.62-.8,1.35-1.2,2.19-1.2l.04-.03Z"/>
        <path class="cls-1" d="M242.94,77.89l.93-1.39c.26-.33.61-.68,1.03-1.03s.87-1.26,1.36-2.73c.49-1.46,1.03-2.48,1.62-3.03s1.47-.83,2.62-.83c.66,0,1.53.27,2.62.81,1.08.54,2.14,2.16,3.18,4.87,1.04,2.71,1.56,4.62,1.56,5.73,0,.45.15,1.01.46,1.7s.51,1.21.6,1.58c-.35.63-.53.98-.53,1.06l.13,2.28-.79,1.84v1.33c-.53.74-.79,1.21-.79,1.39,0,.22.09.45.26.67,2.07-.74,3.33-1.34,3.77-1.81.44-.46.87-.75,1.29-.86s1.11-.59,2.08-1.45l1.25-.56c.44-.44.81-.84,1.12-1.2.31-.35.67-.6,1.09-.75.42-.15.91-.41,1.49-.78.57-.37,1.41-.8,2.51-1.28l.66-.67c.66-.63,1.44-1.13,2.34-1.5s1.4-.56,1.48-.56c.31,0,.63.34.96,1.03s.5,1.36.5,2.03c0,.63-.43,1.25-1.29,1.86-.86.61-1.44,1.07-1.75,1.36s-1.01.56-2.11.78c-.09.04-.82.8-2.18,2.28l-1.32.67-.66.72c-.09.15-.68.3-1.78.45-.04,0-.14.19-.3.56-.16.37-.63.63-1.42.78-1.58,1.22-2.4,1.91-2.44,2.06l-1.39.22c-.26.71-.48,1.13-.66,1.28-1.06.22-1.65.59-1.79,1.11-.13.07-.35.15-.66.22l-.26.17c-1.01.67-2,1.08-2.97,1.22l-1.52.33-.53.67c0,.19-.54.43-1.62.72s-1.88.67-2.41,1.11l-1.12.72c-1.37.45-2.22.85-2.58,1.22h-.93c-.62,0-1.59.38-2.91,1.14s-2.38,1.14-3.17,1.14c-2.55,0-4.31-.27-5.25-.81-.95-.54-1.73-1.21-2.34-2-.62-.8-1.18-1.44-1.69-1.92-.5-.48-.76-.87-.76-1.17,0-.26.21-.52.63-.78s.87-.79,1.35-1.59,1.72-1.31,3.7-1.53c.09,0,.41-.11.96-.33s1-.33,1.35-.33c.44,0,.99.33,1.65,1,0,.08.09.11.26.11l1.06-.11c.48.3.81.45.99.45,1.06,0,2.18-.45,3.37-1.33l.26-.11h.53c.13,0,.35-.32.66-.95l1.12-1.95,2.31-2.5v-.56c0-.11.13-.45.4-1v-.83c0-.33.26-.55.79-.64.53-.09.79-.32.79-.7l-.13-.45c-.35-.41-.53-.72-.53-.95l.66-1.11-.13-1.17.26-.44c-.18-.52-.26-.82-.26-.89l.26-1.39s-.12-.39-.37-1.06c-.24-.67-.43-1-.56-1-.26,0-1.1.58-2.52,1.72-1.41,1.15-2.25,1.97-2.52,2.45-.26.48-.83.92-1.69,1.31-.86.39-1.45.83-1.75,1.31-.31.48-.69.76-1.12.83l-4.44,3-4.83,3c-.35.33-.57.5-.66.5-1.63,0-2.45-.76-2.45-2.28,0-.48.33-1.35.99-2.62.31-.15.54-.26.69-.33.16-.07.23-.13.23-.17s-.04-.06-.13-.06l.4.22h.13c1.63-.93,2.69-1.46,3.18-1.61s.93-.56,1.33-1.22l2.78-1.67c.71-.45,1.79-1.26,3.24-2.45,1.46-1.19,2.38-2.06,2.78-2.62v.05Z"/>
        <path class="cls-1" d="M268.39,85.18l1.06-.78h.4c.31,0,.77-.28,1.39-.83l.66-.22c.88-1.11,1.65-1.76,2.32-1.95l1.06-.67c.18-.15.43-.28.76-.39s.86-.47,1.59-1.08,1.31-.92,1.75-.92.79.04,1.06.11c.26-.45.79-.88,1.59-1.31.79-.43,1.43-.94,1.92-1.53l.86-.33c.71-.3,1.33-.68,1.89-1.14.55-.46,1.27-.7,2.15-.7,1.28,0,2.61.55,4,1.64,1.39,1.09,2.08,2.14,2.08,3.14l-1.12,4.34c-.75,3.19-1.59,4.86-2.51,5.01l-.26,1.17c-.62.37-.93.67-.93.89l.4,1.33c0,.19-.24.46-.73.83-.09,0-.13.11-.13.33v2.28c0,.41-.31.74-.93,1,.09.08.22.15.4.22.26-.22.86-.33,1.79-.33l1.06.11,1.45-1.22c.31-.07.74-.25,1.29-.53.55-.28,1.49-.64,2.81-1.08l8.65-5.56c1.19-1,2.09-1.5,2.71-1.5.66,0,.99.35.99,1.06,0,.82-.19,1.49-.56,2.03-.38.54-.72,1.19-1.03,1.95s-.67,1.29-1.09,1.59c-.42.3-.76.62-1.02.97s-.98.86-2.15,1.53c-1.17.67-2.16,1.34-2.98,2.03s-1.49,1.18-2.02,1.47l-2.84,1.72-.4.56c-.09.08-.5.23-1.22.47s-1.38.55-1.95.92l-1.19.56c-.26.15-.69.24-1.29.28-.59.04-1.11.25-1.55.64s-.79.58-1.06.58l-.99-.11-1.32.33c-.75,0-1.67-.38-2.75-1.14s-1.62-1.57-1.62-2.42v-.33l.13-.78c0-.15-.13-.53-.4-1.14s-.4-.95-.4-1.03l.13-.78-.13-.33c0-1,.09-1.63.26-1.89.18-.26.31-.62.4-1.08s.18-.84.26-1.14l.33-1.39c.17-.45.4-.74.66-.89.09-.3.26-.8.53-1.5l.26-1,.66-.78c.35-.3.56-.7.63-1.2s.3-1.03.69-1.59c.4-.56.6-.89.6-1,0-.45-.26-.67-.79-.67-.18,0-.73.3-1.65.89l-1.19-.33c-.09,0-.33.19-.73.56,0,.15-.2.26-.6.33-.4.08-.77.35-1.12.83l-.53.11-.86-.33h-.26c-.44,0-.71.41-.79,1.22-.49.59-1.12.98-1.92,1.17l-1.46.33c-.49.15-.84.48-1.06,1s-.66.99-1.32,1.42c-.66.43-1.1.64-1.32.64-1.23,0-1.85-.57-1.85-1.72l.53-2.62-.13-.33h-.01ZM296.96,57.36l-.4-2.17v-.33c0-1.74.7-2.71,2.12-2.89.31-.04,1.23-.28,2.78-.72.79.15,1.62.73,2.48,1.75.86,1.02,1.29,1.92,1.29,2.7,0,.08-.07.24-.2.5s-.22.75-.26,1.47-.47,1.35-1.29,1.89-1.69.81-2.61.81c-.62,0-1.4-.36-2.35-1.08s-1.47-1.36-1.55-1.92h-.01Z"/>
      </g>
      <g>
        <path class="cls-1" d="M320.33,71.43c1.16.43,4.02,1.36,7.99,1.37,4.39.02,7.5-1.09,8.62-1.53.41.3,3.52,2.5,8.76,2.51,4.34.01,7.18-1.48,7.79-1.82,1.17.33,3.69.93,7,.85,3.43-.08,5.92-.86,7.03-1.26-7.89,15.97-15.78,31.94-23.66,47.91-7.84-16.02-15.69-32.03-23.53-48.05v.02Z"/>
        <path class="cls-1" d="M376.55,66.46c-.67-1.3-2.23-1.91-3.22-2.17l-.21-9.14-1.21.29c-.37.09-1.38.28-2.55.08-1.29-.22-1.92-.76-2.08-.92l-.46-.46-.61.24c-1.22.49-3.24,1.09-5.91,1.19-3,.11-5.35-.48-6.49-.84l-.15-.05-.3-.1-.04.02-.36.24c-.5.33-3.25,1.97-7.59,1.87-5.02-.12-7.65-2.51-7.76-2.62l-.57-.52-.65.41c-.77.49-3.63,2.09-8.09,2.11-3.43-.02-5.85-.88-7.01-1.42l-.5-.23-.46.3c-.33.21-1.05.59-2.21.74-1.07.14-1.97.01-2.42-.09l-1.13-.23-.52,9.08c-.84.24-1.98.71-2.71,1.62-.55.68-1.22,2.35.23,3.82,1.48,1.51,4.17,1.67,5.25,1.68h.02c2.03,0,3.53-.58,4.34-1,1.47.54,4.06,1.25,7.37,1.21,4.37-.08,7.45-1.47,9-2.38,1.26,1.65,3.68,2.84,6.66,3.18.56.07,1.14.1,1.7.1,2.65,0,5.21-.7,6.97-1.92,1.47.5,4,1.12,7.22,1.04,2.89-.09,5.13-.71,6.61-1.29.8.46,2.43,1.19,4.68,1.09.73-.03,2.58-.21,3.96-1.18,1.14-.82,1.96-2.29,1.2-3.75h0ZM374.19,68.57c-.97.69-2.45.81-2.88.83-2.35.11-3.85-.98-3.91-1.03l-.46-.34-.53.23c-1.06.46-3.29,1.24-6.36,1.33-3.3.11-5.8-.65-6.98-1.1l-.55-.2-.44.37c-1.67,1.37-4.74,2.06-7.64,1.73-2.75-.32-5.01-1.52-5.63-2.99l-.49-1.16-1.02.73c-.81.59-3.84,2.51-8.78,2.6-3.32.06-5.84-.75-7.04-1.24l-.47-.19-.43.26c-.36.23-1.71.96-3.74.96h-.01c-1.29-.01-3.06-.29-3.83-1.08-.49-.49-.27-.94-.1-1.16.47-.6,1.52-.96,2.28-1.1l.77-.14.49-8.37c.56.05,1.22.05,1.94-.05,1.14-.14,1.99-.48,2.55-.76,1.43.6,3.95,1.39,7.28,1.39h.1c4.17-.02,7.14-1.3,8.52-2.05,1.18.87,4.03,2.56,8.5,2.67,4.22.08,7.18-1.3,8.31-1.95,1.55.46,3.87.92,6.74.81,2.58-.1,4.62-.63,6.01-1.12.52.38,1.38.83,2.64,1.05.8.13,1.54.13,2.14.08l.2,8.38.83.13c.68.09,2.19.54,2.57,1.28.29.56-.49,1.14-.58,1.2h0Z"/>
        <path class="cls-1" d="M376.53,50.52c-.6-1.31-2.16-2.01-3.22-2.35.03-.44.06-.87.08-1.31.04-1.03.08-1.95.07-2.81,0-1.52-.13-2.86-.57-4.19-.04-.12-.08-.23-.13-.35-.26-.7-.6-1.36-.98-1.96-1.52-2.46-3.71-4.12-4.56-4.76-1.16-.87-4.24-3.19-9.78-4.77-4.91-1.4-9.2-1.5-12.34-1.58-3.21-.07-7.61-.18-12.89,1.05-1.95.45-6.96,1.82-11.24,4.85-1.64,1.16-3.8,3.02-5.24,5.51-.17.27-.32.56-.46.85-.28.58-.5,1.14-.65,1.68-.41,1.33-.5,2.54-.59,3.81-.01.14-.02.28-.03.42-.06,1.2-.02,2.4.12,3.59-.1.04-.22.09-.33.14-.93.4-2.21.94-2.77,1.93-.72,1.28-.02,2.85,1.75,3.91.46.27,2.14,1.16,4.64,1.04,1.78-.09,3.02-.65,3.71-1.06,1,.46,2.46.98,4.36,1.25.81.11,2.95.33,5.52-.06,2.91-.44,4.95-1.47,6.17-2.28.78.77,1.79,1.43,2.98,1.95.79.35,2.85,1.25,5.78,1.25.12,0,.24,0,.36-.01,3.17-.08,5.38-1.2,6.37-1.82.22.06.44.11.66.16.11.03.22.06.34.08,1.74.39,3.6.59,5.44.6h.08c3.26,0,5.87-.6,7.62-1.17.61.4,1.67.91,3.19,1.07,1.2.14,2.44.02,3.58-.32.83-.25,2.01-.7,2.72-1.68.57-.81.66-1.75.24-2.66h0ZM374.66,52.01c-.26.36-.82.68-1.67.93-.88.27-1.84.36-2.78.26-1.55-.17-2.38-.78-2.6-.97l-.44-.36-.54.19c-1.59.56-4.14,1.23-7.52,1.22-2.76,0-4.97-.49-6.34-.89l-.47-.14-.4.29c-.53.38-2.5,1.64-5.66,1.72-2.67.08-4.58-.76-5.29-1.08-1.57-.68-2.41-1.5-2.84-2.06l-.56-.74-.06-.08-.08.07-.72.57c-.87.7-2.81,1.95-5.99,2.44-2.31.35-4.22.15-4.94.05-2-.28-3.41-.87-4.24-1.31l-.59-.31-.51.41c-.19.15-1.22.91-3.11,1-1.97.1-3.27-.62-3.51-.76-.71-.42-1.15-1-1.04-1.2.23-.4,1.3-.86,1.82-1.08.37-.17.71-.28.95-.35l.83-.26-.14-.86c-.17-1.05-.26-2.11-.25-3.17,0-.4.02-.8.05-1.2.08-1.05.16-2,.41-2.99.14-.58.34-1.16.64-1.78.14-.29.29-.56.45-.83,1.26-2.13,3.15-3.74,4.6-4.76,4-2.83,8.71-4.12,10.54-4.55,5.04-1.16,9.29-1.06,12.39-.99,3.03.08,7.18.17,11.84,1.5,5.18,1.48,8.05,3.64,9.13,4.45.76.57,2.72,2.06,4.04,4.18.38.59.7,1.23.93,1.92.03.09.06.17.08.26.38,1.27.43,2.6.37,4.32,0,.53-.03,1.09-.05,1.71-.03.85-.1,1.55-.15,2.03l-.09.89.88.19c1.11.24,2.39.82,2.68,1.47.1.21.13.4-.05.65h0Z"/>
      </g>
      <g>
        <path d="M342.92,18.68c-18.32-.37-33.29,4.88-33.43,11.73-.06,2.74,2.26,5.31,6.24,7.44.56.31,1.16.6,1.79.89,1.26-2.13,3.15-3.74,4.6-4.76,4-2.83,8.71-4.12,10.54-4.55,5.04-1.16,9.29-1.06,12.39-.99,3.03.08,7.18.17,11.84,1.5,5.18,1.48,8.05,3.64,9.13,4.45.76.57,2.72,2.06,4.04,4.18.62-.33,1.19-.67,1.72-1.02,2.55-1.7,4.03-3.67,4.07-5.79.14-6.85-14.61-12.7-32.93-13.08h0ZM371.77,17.26c-1.73-2.01-3.48-3.27-5.15-4.47-1.21-.88-3.27-2.35-6.42-3.81-1.9-.87-3.6-1.48-4.88-1.88.67,2.37,1.34,4.74,2.01,7.11,2.46.56,5.63,1.48,9.01,3.02,3.9,1.76,6.74,3.73,8.65,5.27-.54-1.34-1.48-3.22-3.22-5.24h0ZM371.77,17.26c-1.73-2.01-3.48-3.27-5.15-4.47-1.21-.88-3.27-2.35-6.42-3.81-1.9-.87-3.6-1.48-4.88-1.88.67,2.37,1.34,4.74,2.01,7.11,2.46.56,5.63,1.48,9.01,3.02,3.9,1.76,6.74,3.73,8.65,5.27-.54-1.34-1.48-3.22-3.22-5.24h0ZM342.92,18.68c-18.32-.37-33.29,4.88-33.43,11.73-.06,2.74,2.26,5.31,6.24,7.44.56.31,1.16.6,1.79.89,1.26-2.13,3.15-3.74,4.6-4.76,4-2.83,8.71-4.12,10.54-4.55,5.04-1.16,9.29-1.06,12.39-.99,3.03.08,7.18.17,11.84,1.5,5.18,1.48,8.05,3.64,9.13,4.45.76.57,2.72,2.06,4.04,4.18.62-.33,1.19-.67,1.72-1.02,2.55-1.7,4.03-3.67,4.07-5.79.14-6.85-14.61-12.7-32.93-13.08h0ZM371.77,17.26c-1.73-2.01-3.48-3.27-5.15-4.47-1.21-.88-3.27-2.35-6.42-3.81-1.9-.87-3.6-1.48-4.88-1.88.67,2.37,1.34,4.74,2.01,7.11,2.46.56,5.63,1.48,9.01,3.02,3.9,1.76,6.74,3.73,8.65,5.27-.54-1.34-1.48-3.22-3.22-5.24h0ZM342.92,18.68c-18.32-.37-33.29,4.88-33.43,11.73-.06,2.74,2.26,5.31,6.24,7.44.56.31,1.16.6,1.79.89,1.26-2.13,3.15-3.74,4.6-4.76,4-2.83,8.71-4.12,10.54-4.55,5.04-1.16,9.29-1.06,12.39-.99,3.03.08,7.18.17,11.84,1.5,5.18,1.48,8.05,3.64,9.13,4.45.76.57,2.72,2.06,4.04,4.18.62-.33,1.19-.67,1.72-1.02,2.55-1.7,4.03-3.67,4.07-5.79.14-6.85-14.61-12.7-32.93-13.08h0ZM342.92,18.68c-18.32-.37-33.29,4.88-33.43,11.73-.06,2.74,2.26,5.31,6.24,7.44.56.31,1.16.6,1.79.89,1.26-2.13,3.15-3.74,4.6-4.76,4-2.83,8.71-4.12,10.54-4.55,5.04-1.16,9.29-1.06,12.39-.99,3.03.08,7.18.17,11.84,1.5,5.18,1.48,8.05,3.64,9.13,4.45.76.57,2.72,2.06,4.04,4.18.62-.33,1.19-.67,1.72-1.02,2.55-1.7,4.03-3.67,4.07-5.79.14-6.85-14.61-12.7-32.93-13.08h0ZM366.34,17.23c3.9,1.76,6.74,3.73,8.65,5.27-.54-1.34-1.48-3.22-3.22-5.24-1.73-2.01-3.48-3.27-5.15-4.47-1.21-.88-3.27-2.35-6.42-3.81-1.9-.87-3.6-1.48-4.88-1.88.67,2.37,1.34,4.74,2.01,7.11,2.46.56,5.63,1.48,9.01,3.02h0ZM375.08,11.04c-8.85-7.62-20.16-9.79-24.86-10.45-3.47-.48-15.46-2-27.96,3.07-10.74,4.37-15.66,11.11-17.3,13.64-8.04-.39-16.08-.79-24.12-1.19-1.05-.46-2.1-.93-3.15-1.39-28.69-1.54-57.37-3.08-86.06-4.62-.67-.14-2.45-.43-4.48.12-1.44.39-2.37,1.04-2.84,1.41-2.33-.4-4.2-.31-5.37-.18-.75.08-1.57.18-2.53.51-1.88.63-2.9,1.69-3.42,2.24-2.23,2.34-2.5,5.31-2.68,7.6-.22,2.86-.41,5.26,1.38,7.9.36.53,1.23,1.83,3.03,3.04.8.54,1.5,1.01,2.64,1.34,2.73.81,5.45.09,6.1-.09.03-.01.06-.02.08-.02.36.37,1.08,1.02,2.3,1.51.4.16,1.13.41,2.47.57,1.93.24,3.17.06,5.15-.06,1.52-.1,3.06-.05,4.59-.08,2.97-.06,25.2-.47,77.64-1.43.66-.04,1.49-.14,2.41-.37,1.17-.3,2.06-.71,2.66-1.04,6.99-.09,13.99-.2,20.98-.3,1.29,2.48,4.09,6.82,9.9,10.48.79.5,1.57.95,2.36,1.36.66.34,1.31.65,1.97.93,0-.4.02-.8.05-1.2.08-1.05.16-2,.41-2.99-.62-.3-1.22-.62-1.81-.97-1.24-.74-2.43-1.61-3.53-2.67-3.5-3.37-4.4-6.98-4.68-8.9-7.87.16-15.73.33-23.59.49l.19-9.51c8.23.5,16.45.99,24.68,1.49.84-1.93,2.53-4.93,5.95-7.86,3.05-2.59,6.11-3.98,8.72-5.14,3.05-1.35,7.69-3.41,14.31-4.19,9.67-1.12,17.37,1.23,20.54,2.24,3.07.98,8.35,2.7,13.15,6.71,1.99,1.65,7.11,6.04,7.97,12.75.23,1.76.68,5.86-2.26,10.17-.95,1.4-2.1,2.57-3.31,3.55-.55.45-1.12.86-1.69,1.24.38,1.27.43,2.6.37,4.32.64-.31,1.32-.64,2.02-1.02,2.16-1.17,4.52-2.73,6.66-4.97.77-.81,3.56-3.78,4.65-7.56,2.8-9.72-7.43-18.54-9.69-20.48h0ZM181.11,30.38c-.56.43-1.45.57-2.16.45-3.41-.58-3.66-7.46-3.7-8.38-.18-4.77,1.83-7.19,2.97-7.68.86-.38,1.62-.29,1.62-.29,0,0,.79.08,1.43.58,1.35,1.07-1.56,3.87-1.77,7.36-.25,4.09,3.36,6.63,1.61,7.96h0ZM268.32,30.69c-26.38.45-52.75.91-79.13,1.38-1.07-1.05-4.23-4.38-4.3-9.24-.08-4.59,2.65-7.79,3.67-8.88,26.67,1.3,53.35,2.58,80.02,3.87l-.26,12.87ZM375.85,31.76c.14-6.85-14.61-12.7-32.93-13.08-18.32-.37-33.29,4.88-33.43,11.73-.06,2.74,2.26,5.31,6.24,7.44.56.31,1.16.6,1.79.89,1.26-2.13,3.15-3.74,4.6-4.76,4-2.83,8.71-4.12,10.54-4.55,5.04-1.16,9.29-1.06,12.39-.99,3.03.08,7.18.17,11.84,1.5,5.18,1.48,8.05,3.64,9.13,4.45.76.57,2.72,2.06,4.04,4.18.62-.33,1.19-.67,1.72-1.02,2.55-1.7,4.03-3.67,4.07-5.79h0ZM374.99,22.5c-.54-1.34-1.48-3.22-3.22-5.24-1.73-2.01-3.48-3.27-5.15-4.47-1.21-.88-3.27-2.35-6.42-3.81-1.9-.87-3.6-1.48-4.88-1.88.67,2.37,1.34,4.74,2.01,7.11,2.46.56,5.63,1.48,9.01,3.02,3.9,1.76,6.74,3.73,8.65,5.27ZM337.41,50.37s.09.01.14.01l-.06-.08-.08.07h0ZM371.77,17.26c-1.73-2.01-3.48-3.27-5.15-4.47-1.21-.88-3.27-2.35-6.42-3.81-1.9-.87-3.6-1.48-4.88-1.88.67,2.37,1.34,4.74,2.01,7.11,2.46.56,5.63,1.48,9.01,3.02,3.9,1.76,6.74,3.73,8.65,5.27-.54-1.34-1.48-3.22-3.22-5.24h0ZM342.92,18.68c-18.32-.37-33.29,4.88-33.43,11.73-.06,2.74,2.26,5.31,6.24,7.44.56.31,1.16.6,1.79.89,1.26-2.13,3.15-3.74,4.6-4.76,4-2.83,8.71-4.12,10.54-4.55,5.04-1.16,9.29-1.06,12.39-.99,3.03.08,7.18.17,11.84,1.5,5.18,1.48,8.05,3.64,9.13,4.45.76.57,2.72,2.06,4.04,4.18.62-.33,1.19-.67,1.72-1.02,2.55-1.7,4.03-3.67,4.07-5.79.14-6.85-14.61-12.7-32.93-13.08h0ZM371.77,17.26c-1.73-2.01-3.48-3.27-5.15-4.47-1.21-.88-3.27-2.35-6.42-3.81-1.9-.87-3.6-1.48-4.88-1.88.67,2.37,1.34,4.74,2.01,7.11,2.46.56,5.63,1.48,9.01,3.02,3.9,1.76,6.74,3.73,8.65,5.27-.54-1.34-1.48-3.22-3.22-5.24h0ZM342.92,18.68c-18.32-.37-33.29,4.88-33.43,11.73-.06,2.74,2.26,5.31,6.24,7.44.56.31,1.16.6,1.79.89,1.26-2.13,3.15-3.74,4.6-4.76,4-2.83,8.71-4.12,10.54-4.55,5.04-1.16,9.29-1.06,12.39-.99,3.03.08,7.18.17,11.84,1.5,5.18,1.48,8.05,3.64,9.13,4.45.76.57,2.72,2.06,4.04,4.18.62-.33,1.19-.67,1.72-1.02,2.55-1.7,4.03-3.67,4.07-5.79.14-6.85-14.61-12.7-32.93-13.08h0Z"/>
        <path class="cls-2" d="M375.85,31.76c-.04,2.12-1.52,4.09-4.07,5.79-.53.35-1.1.69-1.72,1.02-1.32-2.12-3.28-3.61-4.04-4.18-1.08-.81-3.95-2.97-9.13-4.45-4.66-1.33-8.81-1.42-11.84-1.5-3.1-.07-7.35-.17-12.39.99-1.83.43-6.54,1.72-10.54,4.55-1.45,1.02-3.34,2.63-4.6,4.76-.63-.29-1.23-.58-1.79-.89-3.98-2.13-6.3-4.7-6.24-7.44.14-6.85,15.11-12.1,33.43-11.73,18.32.38,33.07,6.23,32.93,13.08h0Z"/>
        <path class="cls-2" d="M355.32,7.1c.67,2.37,1.34,4.74,2.01,7.11,2.47.56,5.63,1.48,9.01,3.02,3.9,1.77,6.74,3.74,8.64,5.28-.54-1.34-1.48-3.22-3.21-5.24-1.73-2.01-3.48-3.28-5.15-4.48-1.21-.87-3.27-2.35-6.42-3.8-1.9-.88-3.6-1.48-4.88-1.89h0Z"/>
        <path d="M375.85,31.76c-.04,2.12-1.52,4.09-4.07,5.79-.53.35-1.1.69-1.72,1.02-1.32-2.12-3.28-3.61-4.04-4.18-1.08-.81-3.95-2.97-9.13-4.45-4.66-1.33-8.81-1.42-11.84-1.5-3.1-.07-7.35-.17-12.39.99-1.83.43-6.54,1.72-10.54,4.55-1.45,1.02-3.34,2.63-4.6,4.76-.63-.29-1.23-.58-1.79-.89-3.98-2.13-6.3-4.7-6.24-7.44.14-6.85,15.11-12.1,33.43-11.73,18.32.38,33.07,6.23,32.93,13.08h0Z"/>
        <path d="M355.32,7.1c.67,2.37,1.34,4.74,2.01,7.11,2.47.56,5.63,1.48,9.01,3.02,3.9,1.77,6.74,3.74,8.64,5.28-.54-1.34-1.48-3.22-3.21-5.24-1.73-2.01-3.48-3.28-5.15-4.48-1.21-.87-3.27-2.35-6.42-3.8-1.9-.88-3.6-1.48-4.88-1.89h0Z"/>
      </g>
    </g>
  </g>
</svg>