<?xml version="1.0" encoding="UTF-8"?>
<svg xmlns="http://www.w3.org/2000/svg" version="1.1" xmlns:xlink="http://www.w3.org/1999/xlink" viewBox="0 0 496 478">
  <!-- Generator: Adobe Illustrator 29.3.1, SVG Export Plug-In . SVG Version: 2.1.0 Build 151)  -->
  <defs>
    <style>
      .st0 {
        fill: #8cbdc6;
      }

      .st1 {
        fill: #ffc043;
      }

      .st1, .st2 {
        display: none;
      }

      .st3 {
        fill: #1c3a5b;
      }

      .st4 {
        fill: #86b9cd;
      }

      .st5 {
        fill: #ebc1b7;
      }

      .st6 {
        fill: #f0e0d1;
      }

      .st7 {
        fill: #0b3661;
      }

      .st8 {
        fill: #d3a851;
      }

      .st9 {
        fill: #8abec9;
      }

      .st10 {
        fill: #f8f4e7;
      }

      .st11 {
        fill: #d7e0d7;
      }

      .st12 {
        fill: #7b471c;
      }

      .st13 {
        fill: #d6339c;
      }

      .st14 {
        fill: #f0e7da;
      }

      .st15 {
        fill: #edddd2;
      }

      .st16 {
        fill: #3f2a1c;
      }

      .st17 {
        fill: #bbd8d5;
      }

      .st18 {
        fill: #f1c6bd;
      }

      .st19 {
        fill: #89c9ca;
      }

      .st20 {
        fill: #e3d7d8;
      }

      .st21 {
        fill: #a5d1d1;
      }

      .st22 {
        fill: #745b4a;
      }

      .st23 {
        fill: #f3d9ca;
      }

      .st24 {
        fill: #d5ded6;
      }

      .st25 {
        fill: #121010;
      }

      .st26 {
        fill: #e2d6d7;
      }
    </style>
  </defs>
  <g id="Layer_2">
    <circle class="st7" cx="247.8" cy="241.4" r="223.9"/>
  </g>
  <g id="Layer_5">
    <circle class="st20" cx="246.5" cy="242" r="210"/>
  </g>
  <g id="Layer_1">
    <g id="Layer_3">
      <path class="st1" d="M399.8,234.8c0,3.7-.1,7.4-.4,11-.1,2.1-.3,4.1-.6,6.2-.8,7.5-2.2,14.9-4.2,22.1-.5,2.1-1.1,4.1-1.8,6.2-2.4,7.6-5.3,15-8.8,22.1-1,2.1-2.1,4.1-3.2,6.2-4.3,7.8-9.3,15.2-14.9,22.1-1.7,2.1-3.4,4.2-5.3,6.2-7.4,8.2-15.7,15.6-24.7,22.1-3,2.2-6.1,4.2-9.3,6.2-20.7,12.7-44.6,20.5-70.2,22.1-3.1.2-6.3.3-9.5.3s-6.3,0-9.5-.3c-25.6-1.6-49.5-9.4-70.2-22.1-3.2-2-6.3-4-9.3-6.2-9-6.5-17.3-13.9-24.7-22.1-1.8-2-3.6-4.1-5.3-6.2-5.6-6.9-10.5-14.3-14.9-22.1-1.1-2-2.2-4.1-3.2-6.2-3.5-7.1-6.5-14.5-8.8-22.1-.6-2-1.2-4.1-1.8-6.2-1.9-7.2-3.3-14.5-4.2-22.1-.2-2-.4-4.1-.6-6.2-.3-3.6-.4-7.3-.4-11s.1-7.4.4-11.1c.1-2.1.3-4.1.6-6.2.8-7.5,2.2-14.9,4.2-22.1.5-2.1,1.1-4.1,1.8-6.2,2.4-7.6,5.4-15,8.9-22.1,1-2.1,2.1-4.1,3.2-6.2,4.3-7.8,9.3-15.2,14.9-22.1,1.7-2.1,3.5-4.2,5.3-6.2,7.4-8.2,15.7-15.6,24.7-22.1,3-2.2,6.1-4.2,9.3-6.2,21-12.8,45.4-20.8,71.5-22.1,2.7-.1,5.3-.2,8-.2s5.4,0,8,.2c26.1,1.4,50.5,9.3,71.5,22.1,3.2,1.9,6.3,4,9.3,6.2,9,6.5,17.3,13.9,24.7,22.1,1.8,2,3.6,4.1,5.3,6.2,5.6,6.9,10.6,14.3,14.9,22.1,1.1,2,2.2,4.1,3.2,6.2,3.5,7.1,6.5,14.5,8.9,22.1.6,2,1.2,4.1,1.8,6.2,1.9,7.2,3.3,14.5,4.2,22.1.2,2,.4,4.1.6,6.2.3,3.7.4,7.4.4,11.1Z"/>
      <path class="st18" d="M326.7,365c-20.7,12.7-44.6,20.5-70.2,22.1h-18.9c-25.6-1.6-49.5-9.4-70.2-22.1h159.3Z"/>
      <path class="st18" d="M360.7,336.8c-7.4,8.2-15.7,15.6-24.7,22.1h-177.9c-9-6.5-17.3-13.9-24.7-22.1h227.2Z"/>
      <path class="st23" d="M380.8,308.5c-4.3,7.8-9.3,15.2-14.9,22.1h-237.7c-5.6-6.9-10.5-14.3-14.9-22.1h267.4Z"/>
      <path class="st6" d="M392.9,280.2c-2.4,7.6-5.3,15-8.8,22.1H110.1c-3.5-7.1-6.5-14.5-8.8-22.1h291.6Z"/>
      <path class="st14" d="M398.8,252c-.8,7.5-2.2,14.9-4.2,22.1H99.5c-1.9-7.2-3.3-14.5-4.2-22.1h303.4Z"/>
      <path class="st11" d="M399.8,234.8c0,3.7-.1,7.4-.4,11H94.8c-.3-3.6-.4-7.3-.4-11s.1-7.4.4-11.1h304.5c.3,3.7.4,7.4.4,11.1Z"/>
      <path class="st17" d="M398.8,217.5H95.4c.8-7.5,2.2-14.9,4.2-22.1h295.1c1.9,7.2,3.3,14.5,4.2,22.1Z"/>
      <path class="st21" d="M392.8,189.2H101.3c2.4-7.6,5.4-15,8.9-22.1h273.8c3.5,7.1,6.5,14.5,8.9,22.1Z"/>
      <path class="st19" d="M380.8,161H113.4c4.3-7.8,9.3-15.2,14.9-22.1h237.6c5.6,6.9,10.6,14.3,14.9,22.1Z"/>
      <path class="st9" d="M360.6,132.7h-227c7.4-8.2,15.7-15.6,24.7-22.1h177.6c9,6.5,17.3,13.9,24.7,22.1Z"/>
      <path class="st4" d="M326.6,104.4h-159c21-12.8,45.4-20.8,71.5-22.1h16.1c26.1,1.4,50.5,9.3,71.5,22.1Z"/>
    </g>
    <g>
      <g>
        <g>
          <path class="st16" d="M282,261.5c-.4,3.3-.9,11.9-4.7,13.1s-3.2-.4-3.7,0-1,7-1,8.4c-2.4-.5-1.8,1.2-2.4,2.7-1.7,4.7-2,6.5,4.2,6.6-.1,3.4-2.9,11.6-3.7,15.9-1.8,8.9-4.8,18.8-5.6,28s1.2,1.8,0,2.8c-4.5,0-7.7.1-12.1-.9-2.7-.7-3.2,1.5-2.8-3.7h-.9c0,.8-.5,1.3-.9,1.9.7-2.3-1.7-1.7-1.9-1.9-.2-.3.2-1.5,0-1.9h4.7c0,.1.7,2.3.9,2.8s0,.8.5.9c.2,0,.3-.9.5-.9,4.8-.7,2-.7,3.7-3.7s3.7-3.9,2.4-6.5-4.2-1.9-6.1,0c.2-1.9.2-3.8.9-5.6,0,0,.3-1.1,1.4-1.5s1.3.6,1.4.6c-.4,1.6,3.6,5.7,4.7,4.7s-.3-1.7.3-2.5c1.8-2.4,5.6-4.6,5.3-8.7s-.8-1.3-.9-1.9c2.5.5,1.9-1.2,2.3-2.8.9-3,3.1-9.8,2.2-12.5-2-6.2-3.5,2.4-3.6,5-1.7-.9-2.7,2.4-2.8,3.7s-.1,1.4,0,1.9c-1.7.5-2,2.1-1.9,3.7-.2-.1-.6.1-.9,0-.5-.2-1.1-1-1.9-.9.5-3-1.5-4.2-1.9-6.5s0-.6,0-.9c2.7,2,2.6,2.7,4.7,0s4.8-9.2,4.6-9.7-5-4.1-5.6-4.3c0-.6,0-1.3,0-1.9,2.3.2,4.6,2,5.1,1.9s3.3-6,3.1-6.9-2.9-4.3-3.2-4.4c-3.4-1.1-2.2,2.7-3.5,3.6s-2.1,0-2.6.2.8,4.8.9,5.6c-.6,0-2.7-.1-2.8,0s.1,1.3,0,1.9c-.5,3-1,4.6-1.9,7.5,0,0-1.7-.9-1.9-.9,1.5-3.7,1.9-7.4,2.8-11.2s1.8-2.8,1.9-4.7c-1.9-1.3-3.8,0-4.7,0-1.6,0-3.1,0-4.7,0s-1.6,0-2.8,0c-2.8,0-5.6,0-8.4,0-.2,1.4.1,2.6.9,3.7-.6,1.6-2.8.6-3.7.9-.1-1.5.2-1.6-.9-2.8s-3.7-1.8-5.6-1.9c.4-.8,1-1.9.9-2.8s-1.6-5-1.9-5.6l.9-.9c.7.6,4.5,3,4.7,2.8-.3-1.2.6-1.9.9-2.8h1.9c-.8,2.2-2.8,5.7.3,6.9s10-.3,11.9-2.2c2.4,5.2,5.7.5,7.5,0s2.7,0,3.7,0,1.9,0,2.8,0c4.1.2,4.1.9,9.3,0,.6-.1,1.4.1,1.9,0,5.4-1.6,5-3.9,5.6-9.3.3-.3-.5-2.5,1.9-1.9ZM271.7,277.4c.3-1.3-.5-2.5-1.9-2.8v2.8s1.9,0,1.9,0ZM262.4,335.3l.5-6.5c-2.1,0-5,5.4-4.1,6.5.6.2,1.4-.1,1.8,0s1.3,2.2,1.9,0Z"/>
          <path class="st16" d="M236.3,283.9c-.4.2-.7.6-.9.9,0-.2-1.4-2,.9-2.8,0,.6,0,1.2,0,1.9Z"/>
          <path class="st16" d="M253.1,326.9h-.9c0-.9.3-1.3.9-1.9,0,.6,0,1.3,0,1.9Z"/>
          <path class="st8" d="M245.6,313.8c-2.2,2.6-2.6,5.4-5.6,7.5-6.3-3.2-.4,2.5-.2,3.4s-.6,5.7-.7,6-1.2-.4-1.9.6c-1,1.5-1.9,3.1-1.8,5-.9,0-1.9,0-2.8,0,.2-2,.1-2.1-1.9-1.9-.5-1.9-.9-3.8-1.9-5.6.1-.3,0-.6,0-.9.7-2.1,1.3-4.4,1.9-6.5.3-.3.6-.6.9-.9.3-.3.8-.6.9-.9.5-1.2,1.4-3.7,1.9-4.7,1.1-2.3,1.7-4,2.8-6.5,2.3-5.7,7.2,4.3,8.4,5.6ZM234.9,318.4v.9c.6-.3.6-.6,0-.9Z"/>
          <path class="st12" d="M239.1,330.6l.9.9c-.3,1.4-1.5,2.9-.9,4.7,2.8-.5,8.3,1.5,7.5-1.9.2.2,2.6-.5,1.9,1.9-.7.9-1.2,1.9-1.9,2.8-1.2-.2-2.5.1-3.7,0-1.8-.2-2.4,0-2.8,0-1.2,0-2.5,0-3.7,0,0-.9-.9-2.2-.9-2.8,0-1.9.8-3.5,1.8-5s1.9-.5,1.9-.6Z"/>
          <path class="st12" d="M230.7,334.3c2-.2,2.1-.1,1.9,1.9-.6,0-1.6.2-1.8,0s.1-1.3,0-1.8Z"/>
          <path class="st16" d="M307.2,123.3c-2.3-.9-4.1-3.7-7.5-2.8l1.9,14c.9,0,1.9.1,2.8,0-2.6,7.6-2.6,6.6-6.5,13.1l-3.7-.9c-.2-1.4-2.3-5-2.8-6.5s.5-4.3-1.4-4.7-3.6,2.4-4.1,3.4c-2.2,4.3-.7,6-.1,9.7s0,8.8,3.7,7.5c-.1.2.1.7,0,.9-.5,1.1-.8,3.3-.9,4.7-.3,2.2-1.1,3.7,0,6.5,1.6-1,2.9-2,4.7-2.8,1.4,3.1,5.1.3,5.4,4.4s-1.7,3.1-4.5,3.1l2.3,7.5c1.8-1.7,1.6-4.2,3.2-6.1,2.9-3.3,5.8-.5,8.7-3.2s4.3-7.5,3.4-8.4l-2.7-.6-2.9-4.1c.5,0,1.3-.8,1.9-.9s1.2,1.5,1.9-.9c.3,0,.6,0,.9,0,2.7.2,4,0,6.5,0,0,.6.1,1.4,0,1.9s-.7,2.2-.9,2.8c-1.1,2.9-3.2,8.2-4.6,10.8-1.8,3.1-4.1,3.7-5.6,6l-2.8-3.7c.9,2.6-2.8,5-2.8,5.3-.3,1.8,1,3.4,1,4,0,.9-.6,2.8-.9,3.7-1.1,2.8-2.2,2.3-2.8,3.5-2.9,6,3.1,11,2.8,17,0,1.7-.6,6.5-.9,8.4s-1.7,7.9-2.5,10.1-1.9,1-2.1,1.8c-.4,1.8.2,4,0,5.9-.9,1.6-1.2,1.6-2.8,1.9s-1.3,0-1.9,0c3.1-1.2.8-2.8,1.3-4.7s1.6-2.4,1.9-3.7c1.1-4.6,5.3-27.1.5-28.9.4-3.9-6.9-18.2-10.6-17.5s-1.9,1.4-3.4,1.6c-4.2.6-6.5.1-10.3,0-3.4-.1-6.4,0-9.3,0-13-.3-17.1.7-29.5,2.7-1.6.2-6.6-.2-6.9.1-.8.8-.6,12.8-6.6,10.2-1.1-3.8,3.6-9.6-1.9-8.4,1.5,7.2-4.2,7.3-3.4,14.3.1.9,1.5,1.8,1.4,2.8-.3,1.6-4.2,3.2,1.1,4.4l-2.8,1.9c-.7,2.8,4.2,2.2,2.7,4.6s-2.7-.6-1.8,1.9c2.9-.1,6.1-2.6,8.9-2.7s5.7.7,6,.9c.5.5,0,13.1,1.9,14.9,0,0,.1,1.1-.3,1.5-1.7,1.6-3,.9-3.4,4.1-.9,6.6,1.3,4.6,4.9,5.6s0,3,4.5,1.4,6.4-8.1,6.4-12.3-2.3-7.5-1.5-10.9c1.2-5.4,7.4-9.6,13-7.9,3.3,1,2.5,6.1,8.5,5.4,4.4-.5,7.9-8,13.1-7.5s7.1,3.4,7.5,3.8c2.8,2.7,2.1,8.9,2.4,9.3s4.8-.4,5.4,2.5c1.1,5.3-6.1,2.8-6.4,3.1s.4,7.7,1.9,8.4c-.2,0-3.1,2.5-2.8,2.8l1.9.9c-.6,0-1.3.1-1.9,0-2.9-.7-4.2-4.3-4.5-7.3-.5-5.6,6.1-13.8-.2-18.4-8.1-5.9-9.3,6.5-18.2,6.1-8.9-.3-5.1-11.1-13.5-6.6s-.6.6-.9.9c-5.2,6.1,2.8,26.7-8.4,29.9-5.3,1.5-13.6,2.2-16.1-4s0-5.3-1.6-7.2c1.6-6.5,3-3.8,3.8-5.3s2.1-7.7,1.8-9.7c-.5-4.3-6.9-2.6-6.5,0-.3,0-.8-.1-.9,0-2-.2-2.1-.1-1.9,1.9-.6.1-1.4-.2-1.9,0-.7.3-.9.9-.9.9-1.1.5-1.5,1.3-3.7,1.9-3.9,1-7.5.7-11.2,1.9-.9-4.1-4.6-13.2-3.7-16.8s1.2-.8,1.4-1.8c.5-2.1,2.4-8.5,2.4-9.9-.1-3.9-4-6.8-5.7-9.8s-2.6-4-2.8-4.7.1-2,0-2.8c-4.6-.4-3.2-6.6-3-9.8s-.8-2.1-.8-2.7c0-1,1.7-.4,1.9-.5-.5,3.4,3.5,5.6,2.8,8.8s-2-1.7-1,4.3c.9,0,1.8.2,2.6-.1,1.6-1.9-.3-4.7.6-6.4s4.1-2.6,5.7-3.7,2.2-5,5-2.7,2.4,8.6,6.7,5.5c0,.1.7,1.1.9,1.9-5.5,1-.2,1.7,0,1.9,1.5,1.2,2.1,2.7,3.4,3.6,5.6,4.1,11.9,2.4,18.1,2s2.4.3,2.8-.9c1.5.1,3.2,0,4.7,0s2.4.3,2.8-.9c.7,0,3.6.1,3.7,0l1.9-.9c1.2,0,2.5,0,3.7,0s1.9,0,2.8,0c2.8.1,5.6-.2,8.4,0s.7.8,1.5.9c6.9.4,14.8,3.3,19.1-3.7,3.5-5.8,2-14.6-4.7-16.8-.4-1.3-1.4-1.9-2.8-1.9-.3-.2-2.8.1-3.7,0,.4-2.5-.6-1.9-2.8-1.9-.2-.4-2.4-.8.4-.9,5.6-.3,8,.6,8.7-6.3s-1.4-9-5.4-11.4c.6-1.6-1.1-4-1-5.1s1.8-.4,1.9-.5c3.2,0,3.3,4.3,4.7,6.8s1.8.6,1.9.6-.8,1.3-.4,1.9c2.1,2.9,2.6-.6,3.2-2.8s-.1-1.3,0-1.9h1.3c1-2.6.9-1.6,3.4-.9-.9-1.2,0-1.8,0-1.9,4.1-3.3,7.5-16.1,13.5-15.9s5.5,3.4,5.2,6.5ZM297.8,129c-.4-.3-3.8-.3-4.4,0-3.4,2.1,2.9,12.4,1.7,15.7l4.7-4.4c2.7-3.9-.7-3.9-.9-4.7-.4-1.3-.5-6.2-1.1-6.7ZM285.7,159.7l-.7-4.4-3-6.8c-2.4,5.4-2.8,9.1,3.7,11.2ZM292.3,174.7c-.2-.2-2,.1-2.8,0,0,1,.3,2.2,0,3.1-.4,1.4-4.2-.5,1.4,4.4.9-1,1.9-7,1.4-7.5ZM195.2,180.3c-1.3-.7-2.5.6-1.9.9,1.3.7,2.5-.6,1.9-.9ZM206.2,208.5c-4.8-2.8-6.6,6.7-1,7.1,3.3.3,3.4-5.8,1-7.1ZM211.3,209.2c0-.6-.5-1.2-1.2-1.2s-1.2.5-1.2,1.2.5,1.2,1.2,1.2,1.2-.5,1.2-1.2Z"/>
          <path class="st22" d="M306.3,177.5c-.8,1.3-1.8,4-1.9,5.6h-2.8c0-.6-1.3-2.2-1-4s3.7-2.8,2.8-5.3l2.8,3.7Z"/>
          <path class="st24" d="M292.3,235.4v1.9c-.7-.3-1.7-.9-1.9-.9v-.9c.6,0,1.3,0,1.9,0Z"/>
          <path class="st12" d="M260.5,182.1c-.5,2.7,2.3,2.3,2.8,2.8,2.5,2.3,6.1,9.1,9.7,8.5s.5-1.9.6-1.9c.2-.2,5.1-.2,5.6,0,.8.2.9,1.3,4.7,1.9,2.1.3,5.5-.3,6.9.8s.1,3.3.6,3.8,2.2-.2,2.8,0c4.9,1.8.7,24.3-.5,28.9s-1.6,2.5-1.9,3.7c-.6,1.9,1.8,3.5-1.3,4.7v.9c-.3,0-.6,0-.9,0-.9,0-3.1-.2-3.7,0-1.5-.7-2.2-8.1-1.9-8.4s7.4,2.2,6.4-3.1-5.1-2.2-5.4-2.5.4-6.6-2.4-9.3c-.4-.4-7.1-3.7-7.5-3.8-5.2-.5-8.7,7-13.1,7.5-6.1.7-5.2-4.4-8.5-5.4-5.7-1.7-11.8,2.5-13,7.9s1.5,8,1.5,10.9c0,4.2-2.1,10.8-6.4,12.3s-3.4-1.1-4.5-1.4c-3.6-1-5.9.9-4.9-5.6,1.2.1,2.6-.2,3.7,0,1.7.3,4,1.8,6.5.9,0-1.9,0-3.7,0-5.6s0-1.9,0-2.8c-.8-.7-5.7,1.2-6.5,1.9-1.9-1.8-1.4-14.4-1.9-14.9s-5.2-.9-6-.9c-2.8.1-6,2.6-8.9,2.7-.9-2.5,1.6-1.6,1.8-1.9,1.5-2.4-3.4-1.8-2.7-4.6l2.8-1.9c-5.3-1.2-1.3-2.8-1.1-4.4s-1.3-1.9-1.4-2.8c-.8-7,4.9-7.1,3.4-14.3,5.5-1.2.8,4.6,1.9,8.4,6,2.6,5.7-9.4,6.6-10.2s5.3.1,6.9-.1c12.5-2,16.5-3,29.5-2.7ZM244.7,193.2c1.1,1.6,8.7,2,6-3.6s-7.9.8-6,3.6ZM263.3,195.2c-1.7-1.8-13.9,8.5-11.2,11.2s14.3-6.5,11.2-11.2ZM234.1,199.3c-1.2-1.1-7.4-4.6-6.1,0s6.3,12.6,9.5,11.7c5.9-1.5-1.1-9.7-3.4-11.7ZM276.9,198.9c-1,.2-1.6,1.5-1,2.8s6.3,8,8.4,7.5c4.7-2.7-5.7-10.6-7.4-10.3Z"/>
          <path class="st12" d="M265.2,253.1c.8,1.9-1.9,1.9-1.9,2.4,0,5.3,4.3,4.5,6.6.4,0,.4.5.8.9.9-1.7,3.4-3.6,8.3,1.5,9.3,3.2.6,2.2-1.8,3.7-3.7s3.7-3.5,4.2-4.7l1.9,1.9c0,.6,0,1.3,0,1.9-2.4-.7-1.6,1.6-1.9,1.9s-1.2-.2-1.5.3c-1.8,2.7-.3,4.2-4.1,5.3s-2,.3-2.8.9c-.1-.1-1.1.2-1.6-.3-1-.9-2.5-5.1-4.9-3.4s-2.1,5.4-1.9,6.5c-.9,0-1.9,0-2.8,0,0-7.6,8.3-7.5.9-14.5s-5.5,4.8-8,7.9-2.1.9-2.3,1c-.6.6,5.3,3.4,5.6,5.6-1.8.5-5.1,5.2-7.5,0s0-3.1-.5-4.6c-.8-2.2-5-7.2-7.9-6.6,1.1-1.8,1.2-1.9,2.8-3.7,4.4,8.1,10.1,6.2,13.1-1.9,3.9-.4,3.9-2.5,8.4-2.8Z"/>
          <path class="st16" d="M284.8,243.8c.1.6-.2,1.4,0,1.9-2.1-.3-2.1.9-1.9,2.8-12.3-1.3-23.8,1.4-35.5,1.9-7.4.3-15-.2-22.4,0l-1.9-1.9c5.8,0,11.4-.6,16.8-.9,11.5-.7,33.5-.5,43-3.7.5-.2,1.4.2,1.9,0Z"/>
          <path class="st22" d="M277.3,274.6c.4,5.9,0,11.5-2.8,16.8-.6-2.5-1.9-5.6-1.9-8.4s.7-8,1-8.4c.4-.4,2.8.2,3.7,0Z"/>
          <path class="st5" d="M272.7,283c0,2.8,1.2,5.9,1.9,8.4s0,.6,0,.9c-6.3,0-5.9-1.9-4.2-6.6s0-3.3,2.4-2.7Z"/>
          <path class="st22" d="M284.8,245.6c.7,2.2,6.6,7.1-1.9,6.5.5-1.3-.4-1.5,1.9-2.3.3-2-.4-1.2-1.9-1.4-.3-1.9-.2-3.1,1.9-2.8Z"/>
          <path class="st25" d="M289.5,236.3v.9c-.9.3-.7,1.2-.9,1.9s-.6,1.2-.9,1.9c-.9-.5-1.8-.8-2.8-.9l-1.9-.9c-.3-.3,2.6-2.7,2.8-2.8.6-.2,2.8,0,3.7,0Z"/>
          <path class="st22" d="M284.8,240c1,.1,1.9.4,2.8.9-.3.6,0,1.6-.9,2.4s-1.4.3-1.9.4-1.4-.2-1.9,0v-3.7c.5.1,1.3,0,1.9,0Z"/>
          <path class="st16" d="M282.9,252.2c-1.1,3.2-.6,4.5-.9,7.5l-1.9-1.9c.4-1,.4-3.4,0-4.7s-.7-1.2-.9-1.9c1.5.1,3,.9,3.7.9Z"/>
          <path class="st22" d="M288.5,239.1c.2-.6,0-1.5.9-1.9l-.9,1.9Z"/>
          <path class="st16" d="M211,250.3c0,.3,0,.6,0,.9-.1,1.2-2.8,2,2.4,2.7,5,.7,8.7-.9,13-.9,3,0,5.9,1.4,9.4,1.1s7.9-2.5,11.6-2.9c6.2-.6,20.4-.6,26.1.9s1.5,0,1.9.9c-4.2.5-3.2.7-4.7,3.7-.4,0-.9-.5-.9-.9,0-.7.2-2.6,0-2.8s-3.8,0-4.7,0c-4.6.3-4.5,2.4-8.4,2.8,0-.2,0-.7,0-.9-.2-.8,0-.8-.9-.9-1.4-.3-9.3.6-10.6,1.1-1.9.7-1.3,2.3-1.5,2.6-1.6,1.8-1.7,1.9-2.8,3.7s-1.6,1.3-1.9,1.9h-.9c1-2.3,1.9-8.1-2.1-8.2-7.1,0-11.9,1.4-10,9.1-2.8-.5-2.8,1.3-3.7,1.9s-1.3-.1-1.9,0c.1-.2.5-1.2.9-1.9s1.7-.2,1.7-2.1c0-3.8-1.6-2.9-2.6-3.5-3-1.8-6.7-3.9-7.5.9s-.1,3.5,0,4.7h-1.9c0-1.7.4-6.5-.1-7.3s-5.1-.2-4.6-5.2l4.7-1.5Z"/>
          <path class="st22" d="M209.2,223.2c.3,2.3-4.3,2.7-4.6,4.4s1.4,10.1,2,11.8,4.4,4.6,5.1,5.6.2,2,.4,2.3c.4.4,10.1.8,11.1-1.3-.7-1.2-2.9.5-3.8-1.1-1.7-3-.7-8.3,0-11.5,1.7,2,.6,4.6,1.6,7.2,2.5,6.2,10.8,5.5,16.1,4-.6,2.2,1.5,1.7,2.8,2.8-5.4.3-11,.9-16.8.9s-8.7,0-13.1,0c-.5-.2-1.9.3-2.8-.4s-3.7-5.1-4.7-6.1c-3.8-5.3-3.4-10.1-4.7-15.9s0-.6,0-.9c3.7-1.1,7.4-.8,11.2-1.9Z"/>
          <path class="st22" d="M224.1,303.5c0,.5.9,1.3.9,1.9s-.9,1.4-.9,2.4c.2,2.3,1.1,4.6.9,7h.9s.9-1.9.9-1.9c.2.4.6.6.9.9.5,2.2,0,6.3,2.8,5.6-.2.5.1,1.3,0,1.9-.6,2.1-1.2,4.5-1.9,6.5-2.7-2-3.8-7.6-4.7-11.2s-1.8-9.3-2.8-14l2.8.9Z"/>
          <path class="st22" d="M215.7,276.4c2.2-1.4,2.7,5.8,4.7,3.7s-1.8-2.3,1.9-2.8c0,2.2-.2,4.5.4,6.6s2.3,3.5,2.4,3.6c-1.3,1-1.8,2.5-2.8,3.7s-1.1,2.2-2.8,1.9c-1-5.1-3.4-11.9-3.7-16.8ZM222.5,288.6c0-.6-.5-1.2-1.2-1.2s-1.2.5-1.2,1.2.5,1.2,1.2,1.2,1.2-.5,1.2-1.2Z"/>
          <path class="st22" d="M212.9,264.3c.2,1.7.5,1.8.9,2.8.8,2.1,1.6,2.3,1.9,2.8.5,1,.5,2.6.9,3.7-1.1.3-.8,1-.9,1.9-6,.3-4.5-6.9-4.7-11.2h1.9Z"/>
          <path class="st12" d="M222.2,293.2c.1.4.5.8.9.9.4,3,.6,6.3.9,9.3l-2.8-.9c-.7-3.1-1.3-6.2-1.9-9.3,1.7.4,2-.8,2.8-1.9,0,.6-.1,1.3,0,1.9Z"/>
          <path class="st12" d="M223.2,248.4l1.9,1.9c-4.7.2-9.3.8-14,.9,0-.3,0-.6,0-.9s-.8-1.8-.9-1.9c4.3,0,8.7,0,13.1,0Z"/>
          <path class="st25" d="M217.6,273.6c.2,0,.6,1.5,1.9,1.9l.5.9.5-.9c.9,0,1.9,0,2.8,0l.9,1.9c-.6,0-1.3,0-1.9,0-3.6.5-1.1,2-1.9,2.8-2,2.1-2.5-5.1-4.7-3.7,0-.3,0-.6,0-.9,0-.8-.2-1.6.9-1.9.3,0,.7-.1.9,0Z"/>
          <path class="st12" d="M250.3,277.4c-.2,2.6-1.2,5.9-2.5,8.2s-2.4.7-2.2,2.1c2.7.1,3.2,4,5.7,5.1s2.9.2,3.7.5,1.8.9,1.9.9c-.3.9-1.5,2.9-.9,3.7s1.4-.2,1.9,0c0,.9-.2,2,0,2.8s0,.6,0,.9c-1.7.3-2.8-2.7-4.2-.9s-3.9,8.7-4.2,10.3c-.6-.3-1.2-.7-1.9-.9-.8-3.4,5.1-11.3,4.6-13.3s-5.4-6-6-6.3c-2.2-.9-1.5,4.1-2.6,5.4s-1.5.1-1.6.2l-.9-.9c.6-1.6,3-6.8,2.7-7.8-.4-1.5-5.2-4.9-7.4-3.4,0-.6,0-1.3,0-1.9.9-.3,3.1.7,3.7-.9.4.6,4.8,4.3,5.6,3.7l1.9-7.5c1.2,0,1.7,0,2.8,0Z"/>
          <path class="st12" d="M236.3,282c-2.3.8-.9,2.6-.9,2.8-.5,3.1-.8,6.8-2.8,9.3-.6-1.1-2-2.4-2.8-3.7,5.1-.9,2-9.2,5.6-11.2,1.2,1.2.8,1.3.9,2.8Z"/>
          <path class="st8" d="M238.1,263.4c-.2.4-1.9,2.6-2.8,4.7s-1.2,1.6-.9,2.8c-.2.2-4-2.2-4.7-2.8s-1.9-3.4-3.7-3.7c1.1,4.3,2.3,3.6,2.8,4.7s1.8,5.1,1.9,5.6c-2.5-.9-5.6.8-7.5.9s-1.9,0-2.8,0-.7,0-.9,0c-1.2-.4-1.7-1.8-1.9-1.9,3.6-.6,3.5-4.5,4.7-7.5.9-.6.9-2.4,3.7-1.9-1.9-7.7,2.9-9.2,10-9.1,4,0,3.1,5.9,2.1,8.2Z"/>
          <path class="st8" d="M249.3,272.7c-1.9,1.9-9.8,3-11.9,2.2-3.1-1.2-1-4.7-.3-6.9s1.5-4,1.9-4.7,1.5-1.2,1.9-1.9c2.9-.6,7.1,4.4,7.9,6.6s-.5,2.5.5,4.6Z"/>
          <path class="st8" d="M254.9,277.4c.2,1.9.9,3.9,2.8,4.7-.9,3.8-1.3,7.5-2.8,11.2-.8-.3-2.2.2-3.7-.5-2.5-1.2-3-5-5.7-5.1-.3-1.4,1.2-.5,2.2-2.1,1.3-2.2,2.3-5.6,2.5-8.2,1.6,0,3.1,0,4.7,0Z"/>
          <path class="st8" d="M260.5,272.7c-1,0-3-.2-3.7,0-.3-2.2-6.2-5-5.6-5.6s1.6-.1,2.3-1c2.5-3.1,4.2-11.5,8-7.9,7.4,6.9-1,6.8-.9,14.5Z"/>
          <path class="st8" d="M257.7,301.6c.4,2.3,2.4,3.6,1.9,6.5s-4.7,5.4-4.7,8.4l-5.6-3.7c0-.6-.1-1.3,0-1.9.3-1.6,3.4-9.3,4.2-10.3,1.4-1.7,2.5,1.2,4.2.9Z"/>
          <path class="st8" d="M249.3,314.7c.3,2.1,1.9,5.5,4.7,4.7-.7,1.8-.8,3.7-.9,5.6-.6.6-1,.9-.9,1.9-4.2,2.1-4.8,2.5-8.4-.9.2-.7-.2-2.1,0-2.8,1.1-2.9,2.2-5.7,3.7-8.4.5.2,1.3-.1,1.9,0Z"/>
          <path class="st8" d="M256.8,331.5l-2.8.9-.9-2.8c.1-.9-.1-1.9,0-2.8s0-1.3,0-1.9c1.9-1.8,4.6-2.9,6.1,0s-1.3,4.6-2.4,6.5Z"/>
          <path class="st8" d="M229.7,277.4c1.9,0,4.2.4,5.6,1.9-3.6,2-.5,10.3-5.6,11.2-.3-.5-.8-.8-.9-.9-.3-.5-.4-2-1-3.1-1-1.6-3.6-2.9-3.6-4.8,0-3.6,2.7-4.3,5.6-4.2Z"/>
          <path class="st8" d="M261.5,286.7c.6.2,5.5,3.9,5.6,4.3.1.5-3.9,8.7-4.6,9.7-1.1-2.3-2.7-2.2-4.7-2.8-.2-1.6.6-2.3-.9-3.7.9-2.8,1.3-4.5,1.9-7.5.9.1,2.1-.2,2.8,0Z"/>
          <path class="st8" d="M261.5,284.8c-.1-.7-1.2-5.4-.9-5.6.4-.2,1.9.3,2.6-.2,1.3-.9,0-4.7,3.5-3.6s3.1,4.1,3.2,4.4c.2.8-2.4,6.7-3.1,6.9s-2.8-1.7-5.1-1.9Z"/>
          <path class="st5" d="M267.1,311.9c.2,4.1-3.5,6.3-5.3,8.7s-.1,2.3-.3,2.5c-1,1-5.1-3.1-4.7-4.7.5-.1,2.4-3,2.8-3.7l.9,2.8c4.6-.1,1.5-3.5.9-5.6s.1-1.9,0-2.8c.3.1.7-.1.9,0,1.6.9,2.6,2.7,4.7,2.8ZM260.1,318.4v.9c.6-.3.6-.6,0-.9Z"/>
          <path class="st12" d="M261.5,309.1c.1.9-.2,2.1,0,2.8-1.8.3-1.4,2-1.9,2.8s-2.3,3.6-2.8,3.7-1-.7-1.4-.6c-1,.4-1.3,1.5-1.4,1.5-2.7.8-4.4-2.5-4.7-4.7s0-1.3,0-1.9l5.6,3.7c0-3,4.2-5.5,4.7-8.4.8,0,1.4.7,1.9.9Z"/>
          <path class="st12" d="M230.7,274.6c0,.9-.5,2-.9,2.8-2.9,0-5.7.6-5.6,4.2s2.6,3.2,3.6,4.8.7,2.6,1,3.1h-.9c-1.8.4-1.9-.8-2.8-1.9s-2.3-3.4-2.4-3.6c-.6-2.2-.4-4.4-.4-6.6.6,0,1.3,0,1.9,0l-.9-1.9c1.8-.1,4.9-1.8,7.5-.9Z"/>
          <path class="st8" d="M241.9,327.8c2.5,0,3.4,2.8,4.7,4.7s-.2,1.6,0,1.9c.8,3.4-4.7,1.4-7.5,1.9-.5-1.8.7-3.3.9-4.7s-.4-2.9.2-3.6,1.6,0,1.7-.1Z"/>
          <path class="st5" d="M267.1,299.8c.1-2.6,1.6-11.2,3.6-5s-1.4,9.5-2.2,12.5.2,3.3-2.3,2.8c-.6-2.1-1.6-3.7-1.9-4.7s0-1.3,0-1.9h1.3c1,.8,0,2.2,1.5,1.9,1.7-2,0-4.8,0-5.6Z"/>
          <path class="st8" d="M263.3,272.7c-.2-1.1,1.6-6.3,1.9-6.5,2.4-1.7,3.9,2.5,4.9,3.4s1.5.2,1.6.3c.4.4.6,1.3.9,1.9v.9c-5.2.9-5.3.2-9.3,0Z"/>
          <path class="st8" d="M247.5,277.4l-1.9,7.5c-.8.6-5.2-3.1-5.6-3.7-.8-1.1-1.1-2.3-.9-3.7,2.8,0,5.6,0,8.4,0Z"/>
          <path class="st12" d="M252.1,326.9h.9c-.1.9.1,1.9,0,2.8s-1.8,1.6-1.9,2.8h-4.7c-1.2-1.9-2.2-4.7-4.7-4.7.3-.3,1.8-1.7,1.9-1.9,3.6,3.4,4.2,3.1,8.4.9Z"/>
          <path class="st8" d="M280.1,263.4c-.6,5.5-.2,7.8-5.6,9.3v-3.7c3.7-1.1,2.2-2.6,4.1-5.3.3-.5,1.4-.2,1.5-.3Z"/>
          <path class="st5" d="M260.5,335.3c-.4-.1-1.2.2-1.8,0-.9-1.1,2.1-6.4,4.1-6.5l-.5,6.5h-1.9Z"/>
          <path class="st5" d="M253.1,329.7l.9,2.8,2.8-.9c-1.7,3,1.1,3-3.7,3.7h-.9c-.2-.5-.9-2.7-.9-2.8,0-1.2,1.8-2.6,1.9-2.8Z"/>
          <path class="st12" d="M266.1,310c.2.6.9,1.4.9,1.9-2.1,0-3.1-1.9-4.7-2.8-.2-1.6.2-3.2,1.9-3.7.2.9,1.3,2.6,1.9,4.7Z"/>
          <path class="st12" d="M254.9,277.4c.9,0,2.8-1.3,4.7,0,0,1.9-1.4,2.7-1.9,4.7-1.9-.8-2.6-2.8-2.8-4.7Z"/>
          <path class="st5" d="M257.7,297.9c2,.6,3.6.5,4.7,2.8-2,2.7-2,2-4.7,0-.2-.8,0-1.9,0-2.8-.5-.2-1.7.2-1.9,0-.6-.8.7-2.8.9-3.7,1.5,1.4.8,2.1.9,3.7Z"/>
          <path class="st8" d="M267.1,299.8c0,.8,1.7,3.6,0,5.6-1.5.4-.5-1.1-1.5-1.9h-1.3c0-1.4,1.1-4.6,2.8-3.7Z"/>
          <path class="st12" d="M239.1,263.4c-.3.7-1.5,3.7-1.9,4.7h-1.9c.9-2,2.6-4.2,2.8-4.7h.9Z"/>
          <path class="st12" d="M229.7,268l-.9.9c-.5-1.1-1.7-.4-2.8-4.7,1.8.4,2.8,2.9,3.7,3.7Z"/>
          <path class="st12" d="M261.5,284.8c0,.6,0,1.3,0,1.9-.7-.2-1.9.1-2.8,0,.1-.6-.2-1.7,0-1.9s2.2,0,2.8,0Z"/>
          <path class="st22" d="M271.7,277.4h-1.9s0-2.8,0-2.8c1.4.3,2.1,1.5,1.9,2.8Z"/>
          <path class="st22" d="M262.4,335.3c-.6,2.2-1.7,0-1.9,0h1.9Z"/>
          <path class="st22" d="M274.5,271.8v.9c-.5.1-1.3-.1-1.9,0v-.9h1.9Z"/>
          <path class="st22" d="M252.1,335.3h.9c-.1,0-.2.9-.5.9-.5-.2-.3-.6-.5-.9Z"/>
          <path class="st16" d="M241.9,296c-4.4,6.2-.3,11.5,5.6,14s1.2.6,1.9.9c-.1.5,0,1.3,0,1.9s0,1.3,0,1.9c-.6-.1-1.4.2-1.9,0s-1.8-.9-1.9-.9c-1.2-1.3-6.1-11.3-8.4-5.6l-1.9-1.9c.1-.4,0-1.3,0-1.9,3.8.5.4-2.1,1.1-3.5s3.2-2.1,4.5-4.9-.1-.7,0-.9l.9.9Z"/>
          <path class="st12" d="M237.2,308.2c-1.1,2.6-1.7,4.3-2.8,6.5-1.1,0-2.2-.4-2.8.9-1-.7-2.9-1.1-3.7-1.9s-.7-.5-.9-.9c-2.1-3.7.8-4.2.9-4.7l4.2,2.8c.3,0,3.2-4.4,3.3-4.7l1.9,1.9Z"/>
          <path class="st12" d="M247.5,314.7c-1.6,2.7-2.6,5.5-3.7,8.4-1.8.3-2.7-1.4-3.7-1.9,3-2.1,3.4-4.8,5.6-7.5,0,0,1.8.9,1.9.9Z"/>
          <path class="st16" d="M240,321.2c1,.5,1.9,2.2,3.7,1.9-.2.7.2,2.1,0,2.8s-1.5,1.5-1.9,1.9-1.3-.3-1.7.1c-.6.7,0,2.6-.2,3.6l-.9-.9c.2-.3.8-5.7.7-6-.2-.9-6.1-6.6.2-3.4Z"/>
          <path class="st16" d="M234.4,314.7c-.4.9-1.4,3.4-1.9,4.7-.4.3-.6.6-.9.9s-.6.6-.9.9c.1-.5-.2-1.4,0-1.9.4-1.2.7-3.1.9-3.7.6-1.3,1.7-1,2.8-.9Z"/>
          <path class="st12" d="M234.9,318.4c.6.3.6.6,0,.9v-.9Z"/>
          <path class="st12" d="M231.6,320.3c.3-.3.6-.7.9-.9-.1.3-.7.6-.9.9Z"/>
          <path class="st10" d="M226.9,136.4c-.1.1-1.3,0-1.9,0l1.9-1.9c0,.6.1,1.7,0,1.9Z"/>
          <path class="st10" d="M238.1,107.4c.4-.5,10.7-5.1,11.2-4.7,0,4.9,2.6,7.2,5.6,10.3s4,3.3,7.5,5.6,5,2.9,4.7,4.7c-1-.2-2.6.2-3.7,0-.5-4.3-1.5-4.4-5-1.8s-.1,6,1.9,6.3,2.2-1.5,3.1-1.8,2.6.2,3.7,0c.1,1.3.7,2.5.9,3.7,0,0-.9.9-.9.9-1.4-.7-6.1-1.8-6.5.5-.6,3.3,5.3,2,6.5,2.3s5.9,2.4,6.5,2.8c4,2.4,5.8,6.8,5.4,11.4-.7,7-3,6.1-8.7,6.3-2.8.1-.6.5-.4.9s-.3,1.3.2,1.7c.7.5,1.8,0,2.6.2s3.5-.2,3.7,0-.2,1.7,0,1.9c.3.3,2.1-.2,2.8,0,6.7,2.2,8.2,11,4.7,16.8-4-1.2-7.4-2.6-11.2.5l4.7,2.3-8.4-.9c-.1-1.7,3-.8,2.7-3.1-.7-5.1-8.4-4.6-8.3,1.3l3.7,1.4-3.7,1.4c-2.8-.2-5.6.1-8.4,0,0-.6-.1-1.3,0-1.9.3-1.3.8-2,.9-3.7,2.9.5,2.8-2.4,0-1.9,0-3,1.2-8-3.3-7.5-.9.1-.4,6.1-.5,7.5-3.1-.9-2.8,5.9,0,4.7v2.8c-1.2,0-2.5,0-3.7,0s-.9-1.3-1.9-.9c-.1.5.1,1.7,0,1.9s-3,0-3.7,0-3.3-2.8-2.8.9c-1.5,0-3.2.1-4.7,0s-3.3-2.9-2.8.9c-6.2.4-12.4,2.1-18.1-2s-1.9-2.4-3.4-3.6c0-.6.1-1.4,0-1.9-.2-.8-.9-1.8-.9-1.9-.1-2.5.2-6.3,1-8.6s6-6.2,6.4-6.4c2.3-1.1,5.3-.4,9.3-2.8s1.9.5,1.9-.5c.5-2.3-.9-1-1.9-1.4s-1.8-.9-2.8-.9l-.9-3.7c1.6.6,2.9-.8,3.7-.9s2.7.2,3.7,0c1.8-.4,4.2-.5,3.8-2.3s-3.2.4-.9-3.3c-.9-.1-2,.2-2.8,0-1.6-.4-3.4-.6-4.7-.9s-3.8-1.4-2.8-1.9c4.3.4,3,.2,3.7-1.9s.6-.4.7-.7c0-.7-.6-.9-.7-1.1-.1-.5,0-1.3,0-1.9.6,0,1.3,0,1.9,0,2-.3,12.6-1.4,13.1-1.9,2.1-2.1-1.8-2.6-1.9-2.8-.2-.3.2-2,0-2.8-.6-2.9-3.4-8.7-6.5-9.3v-2.8c.5-.4,1-1.2,1.9-1.9,3.1-2.6,1.5-2,2.8-3.7ZM245.6,144.8c.3.5-.8,2.9,2.3,1.9s.3-1.8.5-1.9c.3-.3,1.6.6,1.9-.5.5-2.3-1.5-1-1.9-1.4s-2.9-8.1-6.1-7.5c-4.7.9,2.6,8.2,3.3,9.3ZM267.7,147.7c-1.5,0-11.4,3.9-10.9,5.9s9.1.2,10.6-.6c2.5-1.5,3.6-5.4.4-5.3ZM228.8,149.5c-1.3-.7-2.5.6-1.9.9,1.3.7,2.5-.6,1.9-.9ZM243,161.6c0-1.9-1.5-3.5-3.5-3.5s-3.5,1.5-3.5,3.5,1.5,3.5,3.5,3.5,3.5-1.5,3.5-3.5ZM276.4,171.9c.1-.1,1.6.4,1.9-.6,2.2-8.1-7.8-8.1-5.6,0,.3,1,1.8.5,1.9.6.3.4-.9,2.4,1.4,1.9s.2-1.5.5-1.9ZM221.3,178.4c1.9-3.4-7.4-13.1-9.3-11.2s5.5,12.8,9.3,11.2Z"/>
          <path class="st13" d="M246.5,213.9c8.4-4.5,4.6,6.3,13.5,6.6,8.9.3,10.1-12,18.2-6.1,6.3,4.6-.3,12.7.2,18.4s1.6,6.6,4.5,7.3v3.7c-9.4,3.2-31.5,3.1-43,3.7-1.3-1.1-3.4-.6-2.8-2.8,11.2-3.1,3.2-23.8,8.4-29.9l.9-.9Z"/>
          <path class="st25" d="M187.7,160.7c2.2.5,1.9-1.2,2.5-2.6,1.3-3.2,3.6-7.4,5.9-10,4.3-4.9,6.1-5.8,12.6-6-1.6,4.2,1.6,3.4,2.3,6.5l4.7-2.8c-.5,5.2.2,4.9,1.9,8.4s-.2,2,0,2.8c-.4.2-6.3,5.9-6.4,6.4-.9,2.3-1.2,6.1-1,8.6-4.3,3.2-6.2-5-6.7-5.5-2.8-2.3-4.1,2-5,2.7-1.6,1.1-5,2.2-5.7,3.7s1,4.5-.6,6.4c-.8.3-1.8.2-2.6.1-1-6,.6-2.8,1-4.3.7-3.2-3.4-5.3-2.8-8.8.1-.1,0-1.3,0-1.9,2.9.5,2.8-2.4,0-1.9,0-.6,0-1.2,0-1.9ZM205.3,145c-2.1-1-7,4.4-7.1,6s3.7,6.9,4.1,7c2,.3,7.4-4.3,7.9-6.2.8-3.6-1.5-3.6-4-5.1s-.7-1.5-.9-1.6ZM215.7,156c-3.3-1-6.1,4.3-7.7,4.9-4.4,1.8-6.1-1.3-2.1,6.2,2.4-4.6,6.6-7.3,9.8-11.2ZM199.8,165.3c.9-1.2-3.2-7.7-5.6-7.5,0,3.1,2.7,5,1.9,8.4.2.2,3.6-.8,3.7-.9ZM202.6,162.5c.7-1.3-.6-2.5-.9-1.9-.7,1.3.6,2.5.9,1.9Z"/>
          <path class="st13" d="M225,218.5c.2,1.9-1,8.1-1.8,9.7s-2.2-1.3-3.8,5.3-1.8,8.5,0,11.5,3.1-.2,3.8,1.1c-1,2.1-10.7,1.7-11.1,1.3s0-1.6-.4-2.3c-.7-1.1-5-5.3-5.1-5.6-.6-1.7-2.3-10.3-2-11.8s4.9-2.1,4.6-4.4c2.2-.6,2.6-1.4,3.7-1.9l.9-.9c.5-.2,1.3.1,1.9,0,3.2-.7,1.3-1.4,1.9-1.9s.6,0,.9,0c2-.3,4.5.2,6.5,0Z"/>
          <path class="st22" d="M306.3,157.9l2.9,4.1,2.7.6c.8.9-2.3,7.4-3.4,8.4-2.9,2.7-5.8,0-8.7,3.2s-1.5,4.4-3.2,6.1l-2.3-7.5c2.8,0,4.8.3,4.5-3.1s-4-1.3-5.4-4.4c.6-.3,1.2-.7,1.9-.9,1.8-.7,4.6-1,6.5-1.9-4,5.3.2,13.3,3,4.4s.8-7.5-3-8.1c.8-1.6,3.2-.7,4.7-.9Z"/>
          <path class="st22" d="M280.1,182.1c1.6-.2,2.5-1.4,3.4-1.6,3.6-.7,11,13.6,10.6,17.5-.6-.2-2.5.3-2.8,0-.4-.5.7-2.9-.6-3.8s-4.9-.5-6.9-.8c6.6-4.7-5.2-9.1-4.7-1.9-.5-.2-5.4-.2-5.6,0-.9-1.1-1.9-2.8-2.8-3.7,2.2-2.6,3.5,1.8,6.5.5s4.7-3.1,2.9-6.1Z"/>
          <path class="st8" d="M284.8,132.6c-.1.7-.7,1.9-.9,2.8s.1,1.3,0,1.9l-2.8.9c0,0-1.4.2-1.9-.6-1.3-2.5-1.5-6.8-4.7-6.8.2-.2-.2-1.3,0-1.9.5-1.6.7-3.2,1.2-4.8s1.5-5.1,2.9-4.5,6.6,7.2,6.9,8.1c.5,1.8-.5,3.3-.8,4.9Z"/>
          <path class="st24" d="M263.3,178.4l3.7-1.4-3.7-1.4c-.1-5.9,7.6-6.4,8.3-1.3.3,2.3-2.8,1.4-2.7,3.1l8.4.9-4.7-2.3c3.8-3.1,7.2-1.7,11.2-.5-4.3,7-12.2,4.1-19.1,3.7s-1.3-.9-1.5-.9Z"/>
          <path class="st8" d="M291.3,140.1c.5,1.5,2.6,5.1,2.8,6.5.6,4.7-3.1,6-4.7,9.3-3.7,1.3-3.2-4.1-3.7-7.5,2.4-3.7-.6-9.9,5.6-8.4Z"/>
          <path class="st12" d="M297.8,129c.6.5.7,5.4,1.1,6.7s3.6.8.9,4.7l-4.7,4.4c1.1-3.3-5.1-13.7-1.7-15.7s4-.4,4.4,0Z"/>
          <path class="st8" d="M307.2,123.3c.3.1.7-.1.9,0-.4,4-2.4,7.4-3.7,11.2-.9.1-1.9,0-2.8,0l-1.9-14c3.4-.9,5.2,1.9,7.5,2.8Z"/>
          <path class="st12" d="M280.1,182.1c1.9,2.9,0,4.8-2.9,6.1s-4.3-3.1-6.5-.5c-.2-.2-1.7-1.8-1.9-1.9l.9-3.7c3.8.1,6.1.6,10.3,0Z"/>
          <path class="st22" d="M291.3,140.1c-6.2-1.4-3.2,4.7-5.6,8.4-.6-3.7-2.1-5.4.1-9.7s2.9-3.6,4.1-3.4c1.9.4,1.1,3.8,1.4,4.7Z"/>
          <path class="st25" d="M272.7,128.9c.6,0,1.3,0,1.9,0-.2.5.2,1.7,0,1.9s-1.8-.4-1.9.5,1.6,3.4,1,5.1c-.7-.4-5.7-2.5-6.5-2.8.2-.8-.2-2.2,0-2.8s.9-.9.9-.9c1-.6,3.4-.8,4.7-.9Z"/>
          <path class="st25" d="M229.7,229.8c.9-.6,5.8-2.5,6.5-1.9,0,.9,0,1.9,0,2.8-2.4.5-4.9,2.7-6.5,4.7-1.1-.2-2.5.1-3.7,0,.4-3.1,1.8-2.5,3.4-4.1s.2-1.5.3-1.5Z"/>
          <path class="st25" d="M206.2,208.5c2.4,1.4,2.2,7.4-1,7.1-5.5-.5-3.7-9.9,1-7.1Z"/>
          <path class="st0" d="M296.9,161.6c-.6.9-1.3,1.9-1.9,2.8-.6.2-1.2.7-1.9.9-1.7.8-3.1,1.8-4.7,2.8-1.1-2.8-.3-4.4,0-6.5h8.4Z"/>
          <path class="st22" d="M297.9,147.6c-1.2,2-2.7,5.1-2.8,7.5-1.3-.4-3.9,2-5.6,1.9.1-.3-.1-.7,0-.9,1.6-3.3,5.2-4.6,4.7-9.3l3.7.9Z"/>
          <path class="st22" d="M285.7,159.7c-6.5-2.1-6.1-5.8-3.7-11.2l3,6.8.7,4.4Z"/>
          <path class="st22" d="M269.9,182.1l-.9,3.7c-1.5-1.2-4.2-3.2-5.6-.9-.5-.5-3.3,0-2.8-2.8,2.9,0,5.9-.1,9.3,0Z"/>
          <path class="st22" d="M292.3,174.7c.5.5-.5,6.4-1.4,7.5-5.6-4.9-1.8-3-1.4-4.4s0-2.1,0-3.1c.8.1,2.6-.2,2.8,0Z"/>
          <path class="st22" d="M225,218.5c-2.1.2-4.6-.3-6.5,0-.3-2.6,6-4.3,6.5,0Z"/>
          <path class="st22" d="M288.5,132.6c0,0-.9.7,0,1.9-2.5-.6-2.4-1.6-3.4.9h-1.3c.3-.9.8-2.1.9-2.8.9,0,2.2-.9,2.8-.9,1.1,0,.8.5.9.9Z"/>
          <path class="st22" d="M283.9,137.3c-.6,2.2-1.2,5.7-3.2,2.8s.5-1.8.4-1.9l2.8-.9Z"/>
          <path class="st24" d="M254.9,176.5c-.1.5,0,1.3,0,1.9-.9,0-1.9,0-2.8,0v-1.9h2.8Z"/>
          <path class="st24" d="M242.8,179.3c-.4,1.2-1.8.9-2.8.9-.5-3.8,1.9-1,2.8-.9Z"/>
          <path class="st22" d="M269.9,155.1c2.2,0,3.2-.6,2.8,1.9-.8,0-1.9.3-2.6-.2s0-1.4-.2-1.7Z"/>
          <path class="st24" d="M235.3,180.3c-.4,1.2-1.8.9-2.8.9-.5-3.8,2-1,2.8-.9Z"/>
          <path class="st24" d="M279.2,158.8c-.7-.2-2.5.3-2.8,0s.2-1.7,0-1.9c1.4,0,2.4.5,2.8,1.9Z"/>
          <circle class="st12" cx="210.1" cy="209.2" r="1.2"/>
          <path class="st22" d="M217.6,218.5c-.5.5,1.4,1.1-1.9,1.9-.2-2-.1-2.1,1.9-1.9Z"/>
          <path class="st25" d="M211,173.7c.1.5,0,1.3,0,1.9-.2-.2-5.5-.8,0-1.9Z"/>
          <path class="st24" d="M248.4,178.4l-1.9.9c.2-.1-.1-1.3,0-1.9,1-.4,1.8.9,1.9.9Z"/>
          <path class="st3" d="M310,156c-.7,2.4-1.7.9-1.9.9.3-.9,1.1-.9,1.9-.9Z"/>
          <path class="st25" d="M195.2,180.3c.6.3-.5,1.6-1.9.9s.5-1.6,1.9-.9Z"/>
          <path class="st12" d="M245.6,214.8c.3-.3.5-.7.9-.9l-.9.9Z"/>
          <path class="st22" d="M212.9,221.3c0,0,.2-.7.9-.9l-.9.9Z"/>
          <path class="st16" d="M187.7,154.1c.2-.3-.1-2,.9-3.3,3.5-4.3,12.3-14,18.1-13.3l7.1,6.3c-1.2-3.6,2.5-3.4,1.9-6.5.2.2,1.3-.1,1.9,0-.6,2.8-1.6,5.6-1.9,8.4l-4.7,2.8c-.8-3.1-3.9-2.3-2.3-6.5-6.6.3-8.3,1.2-12.6,6s-4.6,6.8-5.9,10-.3,3.1-2.5,2.6c0-.3,0-.6,0-.9v-5.6Z"/>
          <path class="st16" d="M187.7,162.5c2.8-.6,2.9,2.4,0,1.9,0-.6,0-1.3,0-1.9Z"/>
          <path class="st16" d="M301.6,158.8c3.8.7,4,5,3,8.1-2.9,8.9-7,.9-3-4.4-1.9.8-4.7,1.2-6.5,1.9.6-.9,1.3-1.9,1.9-2.8s-.1-2.2,1.9-2.8,2.2-.1,2.8,0Z"/>
          <path class="st22" d="M308.2,123.3c1.6.6,2.9,1.2,4.7.9v1.4c-3.7,1.2-3,4-3.7,5.1s-1.3,2-2.8,2.8-1.5.9-1.9.9c1.3-3.8,3.4-7.2,3.7-11.2Z"/>
          <path class="st16" d="M223.2,111.2c1.8,0,4.9.4,6.5.9s1.5,1,1.9,1.9c-4.7,5.3-4,8.8-2.8,14.9s-.1,2.6,0,3.7c-.6,0-1.3,0-1.9,0-1.6.3-2.3.5-3.7.9,5.4-5.5.8-12.6,4.7-19.2-1.1-1-8.6,1.1-9.2,1.5s.5,1.2.2,1.7c-1.8,3.1-3.3,6.6-2.9,10.6s2.3,4,2.6,6.3c-3.8.1-3.4-3.2-6.5-3.7-.3-5.7.1-12.4,4.6-16.4s4.5-3.1,4.7-3.2c.4-.1,1.3,0,1.9,0Z"/>
          <path class="st16" d="M278.3,104.6c.6-1.7,4.1-7.3,6.1-7.5s9.4,2.5,9.6,3,.3,3.6.1,4.5-.7,1.6-.9,2.8c-.7,3.9-1.3,8.8-2.1,12.4s-4.2,7.4-3.5,11.9c-.6,0-1.9,1-2.8.9.3-1.6,1.3-3.1.8-4.9s-6-7.8-6.9-8.1c-1.4-.5-2.6,3.5-2.9,4.5-.6,1.6-.8,3.2-1.2,4.8-.6,0-1.3,0-1.9,0v-.9c.8-1.7.5-4.4,1.1-5.9s2.3-1.4,2.5-1.7c.3-.5-1.1-9,.1-11.1s.7-1.4,1.9-4.7ZM291.2,100.1h-7.3c.3,3.9,5.4,4.8,4.7,9.2,3.6.8,3.9-8.4,2.7-9.2ZM287,110.8c-1.6-2.4-1.7-5.2-6-5.2.8,2.9-2.7,5.7-2.7,6-.1,3.1,4.8,7.9,6.6,10.8s.9,1.5.7,2.7c1.1-.2,2.2-3.6,2.5-4.5.8-2.7,1.7-5.7.6-8.3s-1.5-1-1.8-1.5Z"/>
          <path class="st22" d="M238.1,104.6c2.8-.4,5.9-3.5,9.3-4.3s3.8.7,5.6-.4c.2,1.5-.2,3.2,0,4.7.6,4.1,1.6,3.6,2.8,6.5-.1,0-.3,1.5-.9,1.9-3-3.1-5.6-5.4-5.6-10.3-.5-.4-10.8,4.1-11.2,4.7v-2.8Z"/>
          <path class="st12" d="M218.5,134.5c-.3-2.3-2.4-4-2.6-6.3-.4-3.9,1.2-7.4,2.9-10.6s-.3-1.6-.2-1.7c.6-.4,8.1-2.5,9.2-1.5-3.8,6.5.7,13.7-4.7,19.2-.3,0-.7,0-.9,0-.4.1-.7.6-.9.9-.9.5-1.8.8-2.8.9,0-.3,0-.7,0-.9Z"/>
          <path class="st15" d="M226.9,136.4c.1-.1,0-1.3,0-1.9,0,.2.7.4.7,1.1s-.6.5-.7.7Z"/>
          <path class="st15" d="M226.9,132.6c0,.6-.1,1.3,0,1.9l-1.9,1.9c.6,0,1.7.1,1.9,0-.8,2.1.5,2.3-3.7,1.9-1.1.4,2.1,1.7,2.8,1.9l.9,6.5c-.9.2-2.2,1.5-3.7.9l.9,3.7c-2.2-.1-3,3.6-6.5,2.8-1.7-3.5-2.3-3.2-1.9-8.4s1.3-5.6,1.9-8.4.9-.9.9-1.9c1-.1,1.9-.5,2.8-.9s.7-.6.9-.9c.3,0,.6,0,.9,0,1.4-.4,2.2-.7,3.7-.9ZM221.3,140.1l-.5-2.8c-1,.9-1.7,1.4-1.4,2.8h1.9Z"/>
          <path class="st16" d="M234.1,199.3c2.3,2,9.3,10.2,3.4,11.7s-8.7-9.2-9.5-11.7c-1.4-4.6,4.8-1,6.1,0Z"/>
          <path class="st16" d="M263.3,195.2c3.1,4.7-8.5,13.8-11.2,11.2s9.5-13,11.2-11.2Z"/>
          <path class="st16" d="M276.9,198.9c1.7-.3,12.1,7.5,7.4,10.3-2.1.5-7.6-5.8-8.4-7.5s0-2.6,1-2.8Z"/>
          <path class="st16" d="M268.9,185.9c.1.1,1.7,1.7,1.9,1.9.9,1,1.9,2.6,2.8,3.7,0,0,.4,1.8-.6,1.9-3.6.7-7.2-6.2-9.7-8.5,1.4-2.2,4.1-.3,5.6.9Z"/>
          <path class="st16" d="M244.7,193.2c-1.9-2.9,3.7-8.4,6-3.6s-4.9,5.3-6,3.6Z"/>
          <path class="st16" d="M279.2,191.5c-.5-7.2,11.3-2.8,4.7,1.9-3.8-.5-3.8-1.6-4.7-1.9Z"/>
          <path class="st16" d="M236.3,230.7c0,1.9,0,3.7,0,5.6-2.6.8-4.8-.6-6.5-.9,1.6-2,4.1-4.1,6.5-4.7Z"/>
          <path class="st8" d="M275.5,253.1c1.5-.2,3.1.1,4.7,0,.4,1.3.4,3.7,0,4.7s-3.2,3.4-4.2,4.7c-1.5,1.9-.5,4.3-3.7,3.7-5.1-1-3.1-6-1.5-9.3s.5-3.3,4.7-3.7Z"/>
          <path class="st8" d="M255.9,254l.9.9c0,.2,0,.8,0,.9-2.9,8.1-8.6,10-13.1,1.9.3-.3-.3-2,1.5-2.6s9.2-1.4,10.6-1.1Z"/>
          <path class="st8" d="M265.2,253.1c.9,0,4.5-.1,4.7,0s0,2,0,2.8c-2.3,4.1-6.6,4.9-6.6-.4s2.7-.5,1.9-2.4Z"/>
          <path class="st16" d="M274.5,269v2.8h-1.9c-.4-.5-.6-1.5-.9-1.9.8-.6,1.9-.6,2.8-.9Z"/>
          <path class="st8" d="M225,250.3c7.4-.2,15,.3,22.4,0v.9c-3.7.4-8.3,2.6-11.6,2.9s-6.4-1.1-9.4-1.1c-4.3,0-7.9,1.6-13,.9-5.2-.7-2.5-1.5-2.4-2.7,4.7-.1,9.3-.8,14-.9Z"/>
          <path class="st5" d="M282.9,248.4c1.5.2,2.2-.6,1.9,1.4-2.3.8-1.4,1-1.9,2.3-.7,0-2.2-.8-3.7-.9s-4.7-.5-5.6.9c-5.8-1.6-19.9-1.5-26.1-.9v-.9c11.7-.5,23.2-3.1,35.5-1.9Z"/>
          <path class="st12" d="M279.2,251.2c.2.6.8,1.3.9,1.9-1.5.1-3.1-.2-4.7,0-.4-.9-1.1-.7-1.9-.9.9-1.4,3.9-1.1,5.6-.9Z"/>
          <path class="st8" d="M220.4,258.7l.9,5.6c-.4.6-.8,1.7-.9,1.9-1.2,1.4-2.9,3.7-4.7,3.7-.3-.5-1.1-.7-1.9-2.8,1.5-1.8,2-8.6-.9-7.5.8-4.9,4.5-2.8,7.5-.9Z"/>
          <path class="st12" d="M222.2,266.2c-1.2,3-1.1,6.8-4.7,7.5-.2-.1-.6,0-.9,0-.4-1.1-.5-2.8-.9-3.7,1.8,0,3.5-2.3,4.7-3.7.5-.1,1.6.2,1.9,0Z"/>
          <path class="st12" d="M212.9,259.6c3-1.1,2.4,5.7.9,7.5-.4-1-.7-1.1-.9-2.8s-.2-3.5,0-4.7Z"/>
          <path class="st12" d="M220.4,258.7c1,.6,2.6-.3,2.6,3.5s-1.4,1.7-1.7,2.1l-.9-5.6Z"/>
          <path class="st12" d="M256.8,255l-.9-.9c.9.2.7.1.9.9Z"/>
          <path class="st8" d="M225,287.6c.9,1,1,2.3,2.8,1.9.5,2,1.2,5.8,1.9,7.5-2.7,1.5-3.4,5.5-3.7,8.4h-.9c0-.5-.9-1.4-.9-1.9-.3-3.1-.5-6.3-.9-9.3s-.5-.8-.9-.9c-.1-.5,0-1.3,0-1.9,1-1.2,1.5-2.8,2.8-3.7Z"/>
          <path class="st16" d="M227.9,305.4c-.2.7.2,2.1,0,2.8s-3,1-.9,4.7l-.9,1.9h-.9c.3-2.4-.7-4.6-.9-7s.9-2.1.9-2.4h2.8Z"/>
          <path class="st8" d="M231.6,315.6c-.3.6-.5,2.5-.9,3.7-2.8.7-2.3-3.4-2.8-5.6.8.7,2.7,1.1,3.7,1.9Z"/>
          <circle class="st12" cx="221.3" cy="288.6" r="1.2"/>
          <path class="st22" d="M223.2,294.2c-.4-.1-.8-.5-.9-.9.5,0,.9.5.9.9Z"/>
          <path class="st12" d="M219.4,275.5c.2,0,.6,0,.9,0l-.5.9-.5-.9Z"/>
          <path class="st8" d="M247.5,310c-5.9-2.5-10-7.8-5.6-14,0-.1,1.2.2,1.6-.2,1-1.3.4-6.3,2.6-5.4s5.8,5.7,6,6.3c.5,2-5.3,10-4.6,13.3Z"/>
          <path class="st8" d="M240.9,295.1c-.1.3.1.7,0,.9-3.7,1.7-4.1,1.4-7.5.9-.6-.8-.6-2.1-.9-2.8,2-2.5,2.3-6.3,2.8-9.3.3-.3.6-.7.9-.9,2.2-1.4,6.9,1.9,7.4,3.4s-2.1,6.2-2.7,7.8Z"/>
          <path class="st16" d="M229.7,290.4c.8,1.4,2.2,2.7,2.8,3.7s.3,2,.9,2.8c-.4,0-1.1.4-.9.9-.3-.2-1.5.2-1.9,0s-.9-.8-.9-.9c-.7-1.6-1.4-5.5-1.9-7.5h.9c.1.2.6.4.9.9Z"/>
          <path class="st8" d="M261.5,311.9c.6,2.1,3.6,5.5-.9,5.6l-.9-2.8c.5-.8,0-2.5,1.9-2.8Z"/>
          <path class="st8" d="M260.1,318.4c.6.3.6.6,0,.9v-.9Z"/>
          <path class="st8" d="M232.5,297.9c2.1,1.7,2.8,3.9,2.8,6.5s.1,1.4,0,1.9-3,4.6-3.3,4.7l-4.2-2.8c.2-.7-.2-2.1,0-2.8.6-1.8,3.5-4.5,2.8-7.5.4.2,1.6-.2,1.9,0Z"/>
          <path class="st12" d="M240.9,296c-1.3,2.8-4.4,4.5-4.5,4.9-.7,1.4,2.7,4.1-1.1,3.5,0-2.6-.7-4.9-2.8-6.5-.2-.6.5-1,.9-.9,3.4.5,3.8.8,7.5-.9Z"/>
          <path class="st26" d="M233.5,115.8c0,3.1,1.7,11.8,6.5,9.3.2.8-.2,2.5,0,2.8l-11.2.9c-1.2-6.1-1.9-9.7,2.8-14.9s1.4-.5,1.9-.9v2.8Z"/>
          <path class="st22" d="M267.7,147.7c3.2-.2,2.2,3.8-.4,5.3s-10,3.3-10.6.6,9.5-5.8,10.9-5.9Z"/>
          <path class="st16" d="M262.4,110.2c2.4,1.6,1.4,5.4,1.9,6.5l-1.9,1.9c-3.4-2.3-4.9-3-7.5-5.6.6-.3.8-1.8.9-1.9,1.5-1,4.8-.7,6.5-.9Z"/>
          <path class="st16" d="M221.3,178.4c-3.8,1.6-10.4-10.1-9.3-11.2,1.9-1.9,11.3,7.8,9.3,11.2Z"/>
          <path class="st16" d="M255.9,170.9c0,.6,0,1.3,0,1.9-.1,1.7-.6,2.4-.9,3.7h-2.8v-.9c0-1.6,0-3.1,0-4.7s-.4-7.4.5-7.5c4.4-.5,3.3,4.5,3.3,7.5Z"/>
          <path class="st22" d="M272.7,128v.9c-1.2.1-3.7.4-4.7.9-.2-1.2-.8-2.5-.9-3.7s0-.6,0-.9c.7,0,1-.2.9-.9s-.2-.8-.9-.9c.4-1.8-3-3.5-4.7-4.7l1.9-1.9c0,.2,2.5,1,3.6,2.5,2.3,2.9,2,6.6,4.8,8.7Z"/>
          <path class="st22" d="M248.4,142.9c-.1.5.1,1.7,0,1.9-.3.2-2.1-.2-2.8,0-.6-1.1-7.9-8.4-3.3-9.3s5.7,7.1,6.1,7.5Z"/>
          <path class="st22" d="M240,128c.1.2,4,.7,1.9,2.8s-11.1,1.6-13.1,1.9c-.1-1.2.2-2.6,0-3.7l11.2-.9Z"/>
          <path class="st16" d="M263.3,123.3c0,.9,0,1.9,0,2.8-.9.3-1.9,2-3.1,1.8-2-.4-4.9-4.1-1.9-6.3s4.6-2.5,5,1.8Z"/>
          <circle class="st3" cx="239.5" cy="161.6" r="3.5"/>
          <path class="st16" d="M240,125.2c-4.9,2.5-6.5-6.2-6.5-9.3,3.1.6,5.9,6.4,6.5,9.3Z"/>
          <path class="st3" d="M274.5,171.9c0-.1-1.6.4-1.9-.6-2.2-8.1,7.8-8.1,5.6,0s-1.8.5-1.9.6h-1.9Z"/>
          <path class="st22" d="M224.1,151.3c1,0,1.9.6,2.8.9v1.9c-4.1,2.4-7,1.7-9.3,2.8-.2-.8.2-2.3,0-2.8,3.6.8,4.3-2.9,6.5-2.8Z"/>
          <path class="st22" d="M230.7,141.1v5.6c-1.1.2-2.6-.2-3.7,0l-.9-6.5c1.3.3,3,.5,4.7.9Z"/>
          <path class="st22" d="M267.1,130.8c-.2.6.2,2,0,2.8-1.2-.4-7.1,1-6.5-2.3s5.1-1.1,6.5-.5Z"/>
          <path class="st22" d="M229.7,112.1c2-1.6,3.7-4.1,6.5-3.7l-.9,2.8c-.9.7-1.4,1.4-1.9,1.9s-1.5.6-1.9.9c-.3-.9-.9-1.6-1.9-1.9Z"/>
          <path class="st15" d="M230.7,141.1c.8.2,1.9-.1,2.8,0-2.3,3.7.7,2.3.9,3.3.5,1.8-2,1.9-3.8,2.3v-5.6Z"/>
          <path class="st24" d="M267.1,123.3c.8.2.8,0,.9.9-.4.1-.9.5-.9.9s0,.6,0,.9c-1.1.2-2.8-.3-3.7,0,0-.9,0-1.9,0-2.8,1.2.2,2.7-.2,3.7,0Z"/>
          <path class="st24" d="M252.1,170.9c0,1.6,0,3.1,0,4.7-2.8,1.2-3.1-5.6,0-4.7Z"/>
          <path class="st15" d="M248.4,142.9c.4.4,2.4-.9,1.9,1.4s-1.6.2-1.9.5.2,1.7-.5,1.9c-3.1,1-2-1.4-2.3-1.9.7-.2,2.5.2,2.8,0s-.1-1.3,0-1.9Z"/>
          <path class="st15" d="M226.9,152.3c.9.4,2.3-.9,1.9,1.4,0,1-1.5.2-1.9.5v-1.9Z"/>
          <path class="st24" d="M255.9,170.9c2.8-.6,2.9,2.4,0,1.9,0-.6,0-1.2,0-1.9Z"/>
          <path class="st24" d="M276.4,171.9c-.3.3.6,1.7-.5,1.9-2.3.5-1.1-1.5-1.4-1.9h1.9Z"/>
          <path class="st15" d="M228.8,149.5c.6.3-.5,1.6-1.9.9s.5-1.6,1.9-.9Z"/>
          <path class="st16" d="M205.3,145c.2,0,.3,1.3.9,1.6,2.5,1.6,4.8,1.5,4,5.1s-5.9,6.4-7.9,6.2-4.1-5.6-4.1-7,4.9-7,7.1-6Z"/>
          <path class="st16" d="M215.7,156c-3.2,3.8-7.4,6.6-9.8,11.2-3.9-7.5-2.3-4.5,2.1-6.2,1.6-.7,4.4-6,7.7-4.9Z"/>
          <path class="st16" d="M199.8,165.3c-.1.2-3.6,1.1-3.7.9.9-3.4-1.8-5.3-1.9-8.4,2.4-.2,6.5,6.2,5.6,7.5Z"/>
          <path class="st16" d="M202.6,162.5c-.3.6-1.6-.5-.9-1.9s1.6.5.9,1.9Z"/>
          <path class="st12" d="M287,110.8c.3.5,1.5.6,1.8,1.5,1.1,2.7.1,5.6-.6,8.3s-1.4,4.4-2.5,4.5c.2-1.2-.1-1.8-.7-2.7-1.8-2.9-6.7-7.7-6.6-10.8s3.4-3.1,2.7-6c4.2,0,4.4,2.8,6,5.2Z"/>
          <path class="st8" d="M291.2,100.1c1.3.8.9,10-2.7,9.2.7-4.4-4.4-5.3-4.7-9.3h7.3Z"/>
          <path class="st16" d="M221.3,134.5c.2-.3.5-.8.9-.9-.3.3-.6.7-.9.9Z"/>
          <path class="st10" d="M221.3,140.1h-1.9c-.3-1.4.4-1.9,1.4-2.8l.5,2.8Z"/>
          <path class="st12" d="M230.7,297.9c.7,3-2.2,5.7-2.8,7.5h-1.9c.3-2.9,1-6.9,3.7-8.4,0,.1.8.9.9.9Z"/>
          <path class="st10" d="M267.1,125.2c0-.4.5-.8.9-.9.1.7-.3,1-.9.9Z"/>
        </g>
        <path class="st25" d="M308.2,66.3l6.5,1.9c.7-1.2,1.6-7.2,1.9-7.4.7-.7,6.9.8,7.4,2.4.8,2.7-8,17.4-7.4,21.8-13.5-1.5-2.8-8.7-4.7-11.2l-6.5-1.9-2.5,7.5-6.9-2c2-2.7,6.6-20.7,7.6-21.3,1.4-.9,6.7.4,7.3,2.4s-2.9,5.3-2.7,7.8Z"/>
        <path class="st25" d="M55.1,247.5c.5-6.9-2-17.4,7.2-19.4,3.4-.8,13.4,0,15.2,3.3,1.7,3.2,2.6,13.6,1.9,17l-.9.9c-.2.1-.6-.1-.9,0-.6-1.4-2.5-.9-3.7-.9-1.5,0-3.1,0-4.7,0-2.2.1-4.8.9-5.6.9-2.3.1-5.2.2-7.5,0l-.9-1.9ZM73.8,241.9c.2-.2,0-3.3-.2-4-1.2-3.4-12.5-4.3-12.7,1.9s12.4,2.6,12.9,2.1Z"/>
        <path class="st25" d="M363.2,104.7c-7.8-5.1-4.9-2-8.8,1s-6.6-.3-7-2.5,13.4-17.8,14.5-18,5.1,3.8,5.1,5.1c0,3.2-7.1,4.4-3.3,7.9,5.6,5.2,6.3-3.8,9.3-3.8s4.9,3.5,5.1,4.4-13.5,16.8-14.6,17c-1.9.5-5-2.3-5-4.1s5.9-5.3,4.7-7Z"/>
        <path class="st25" d="M244.7,69.1c-2.4.2-5.5,2.4-7.8,1.9s-8.2-16.1-5.3,0l-7.5.9-1.9-24.3c7.4.7,21-4.2,19.7,8s-3.4,4.1-2.8,6.3,6.7,5.5,5.5,7.2ZM229.7,58.9c2.5,2.4,7.3-3.7,3.8-6.1-5.1-3.5-4.2,5.8-3.8,6.1Z"/>
        <path class="st25" d="M110.9,104.8c10-2.2,19.7,11,12.8,20.3s-30.8-5.8-17.5-17.5,3.5-2.5,4.7-2.8ZM109.4,112.2c-4,2.6,5,12,8.2,10.7,7.9-3.3-4.3-13.2-8.2-10.7Z"/>
        <path class="st25" d="M435.1,207.3c-.3.2-5.4.4-7,.9s-1.5-.7-1.3,1.3,1.2,3.4.9,5.2l9.3-.9c-.2,1.4.3,7.2,0,7.5s-3.9-.2-5.1,0c-2.5.3-16.5,3.2-17.2,2.7s-1.4-7-1-7.4,8.3.5,8.4-1.5-1.6-4.1-.9-6c-7.4.7-10.3,3.2-9.3-6.5,4.8,1.8,18.5-3.7,21.8-2.7,2.1.7,1.8,7.1,1.5,7.4Z"/>
        <path class="st25" d="M130.9,85.2c.1-.2,4-2.8,4.2-2.9,2-.4,11.9,13,12.3,15.6,1.2,7-9.6,15.7-16.2,10.5s-10.4-12-10.6-12.8c-.7-2.6,3.7-5.5,5.8-4.9s9.3,16.8,13.3,11.2-11.1-12.8-8.8-16.7Z"/>
        <path class="st25" d="M64.4,201.8c1.5,1.5-2.7,8.4.5,10.2l2.4-7.4c8.1-.3,4.9,2.7,5.1,8.4,5,.7,2.4-6.3,4.3-9.3,10.8-1.4,2.3,11.4,3.6,17.7l-23.9-3.7,2.4-16.8c1,.5,5.3.8,5.5,1Z"/>
        <path class="st25" d="M251.7,71c-2.8-.9-.5-6.6-.4-8.8s-.8-13.9.8-15c2.7-1.9,13,1.8,16.9.5,1.2,9.8-3.8,4.8-10.3,5.6v2.8s7.5,0,7.5,0c.7,7.3-1.2,7.1-7.5,5.6-1.5,6.3,4.8,3,9.3,3.7-.7,1-.6,5.6-.9,5.6-3.3,0-13.2.7-15.4,0Z"/>
        <path class="st25" d="M396.7,121.3c-.1.2-3.5,2-3.9,1.9-1.4-.2-5.4-8.3-7.1-6.5s6.4,10.3-.5,10.3-3.6-7.5-7-3.3c-.4,2.1,5.5,6.1,5.6,6.5.3,1.3-2.9,4.2-4.2,4.2s-10.9-11.5-10.7-12.6l17.2-14.6c.9,0,8.4,8.1,9.3,9.4s2.1,3.2,1.3,4.5Z"/>
        <path class="st25" d="M382.8,137.3l22-5.6c6,3.7,6,6.9,1.8,12.1s-7.5,8.5-9.8,10.7-6-.3-6.4-3,2.9-2.8,1.3-5.9-10.1-1.2-8.9-8.4ZM401.5,139.2c-7-1.2-7.7,7.3-2.3,3.8s3.1-3,2.3-3.8Z"/>
        <path class="st25" d="M293.1,52.5c.8,1.3-.8,6-2.3,6.4s-4.4-3.6-6.9-2.7c2.3,5.9,12.1,9.4,4.6,16.3-3.4,3.1-14,2.1-15.7-.5s1-4.7.8-6.4l9.3,2.8c-1.3-5-8.3-5-7.3-11.4s15.5-7.5,17.5-4.3Z"/>
        <path class="st25" d="M159.6,69.2l1,6.5c-.4.4-7.6-.8-6.5,2.8,8.1-1.6,17.9,1.9,12.9,11.6s-9,6.7-11.5,6.1-2.5-4.8-2.4-6.4c1.8.5,10.3-.9,7.5-3.7s-11,2.9-12.9-3.5c-2.3-7.8,4.8-13.3,11.8-13.3Z"/>
        <path class="st25" d="M97.1,147.6c11,1.3,2.2,14.1-4.3,14.9-6.6.9-14.6-5.1-15.1-11.9s3.3-12.4,8.2-10-4.7,7.4.6,11.6,10.6,2.1,10.6-4.6Z"/>
        <path class="st25" d="M213.8,49.6c4.1,10.7-7.9,3-6.5,11.2l7.5-.9c2.1,8.3-4.2,5-5.5,6.6-2,2.3,6.1,11-6.6,9.3,1.4-4.6-5.6-18.7-4.6-21.8s13.2-3.7,15.8-4.3Z"/>
        <path class="st25" d="M437.9,230.7c.8,8-.3,6-5.2,8.3s4.1,4.3,5,5.8-.2,5.5.1,7.3c-.7.8-13-7.5-14.9-8-2.2-.6-8.1-.1-8.4-.4s.2-6.1,0-7.5c8.8,3.7,15-4.8,23.3-5.6Z"/>
        <path class="st25" d="M431.3,190.4c-.1.2-3.8,1-4,.9-1.5-.3-1.3-3.4-2.4-4.2-2.5-1.8-15.1,5.5-16.8,4.2s-1.4-5-1.9-6c.4-1.9,15-4.4,15.7-5.3s-1.2-6.2-.9-6.5,4.8-.9,5.1-.8c1.3.3,6.3,16.2,5.1,17.5Z"/>
        <path class="st25" d="M419.2,153.2c.1,1.5,2.7,6.6,1.9,7.4s-12,3.3-14,5.1,1.6,5.1.9,7.9c-1.8.4-3.8,1.7-5.6.5s-5.9-10.7-5.2-11.8,21-10,22-9.3Z"/>
        <path class="st25" d="M84,198c-2.9-.6-21.6-4.6-22.3-5.7s.6-7.1.8-7.4c.8-.7,14.8,5,16.3,4.6,3-.7.5-9.8,6.5-5.5s-1.6,10-1.3,13.9Z"/>
        <path class="st25" d="M90.5,178.3c-1.5,1.3-18.6-7.7-22.3-7.5l1.9-7.3,21.4,7.9c1.4.5-.7,6.7-1,6.9Z"/>
        <path class="st25" d="M111.1,138.3c.8,1.1-3.1,6.7-5,6.4s-14.7-11.5-17.3-12.7c2.2-14.2,15.1,5,22.3,6.3Z"/>
        <path class="st25" d="M341.5,88.5c-4.8,4.9-15.3-1.3-10.1-8.7,5.3-7.5,16.1,2.7,10.1,8.7Z"/>
        <path class="st25" d="M186.5,82c-5.6,5.6-16.3-3.3-9.1-9.6,7.1-6.1,13.8,4.8,9.1,9.6Z"/>
        <path class="st22" d="M244.7,86c-.2.2.2.8,0,.9-7.1,7.1-12.3,3.5-18.7,15.9s-4.2,3.8-2.8,8.4c-.6,0-1.5-.1-1.9,0v-1.9c0-.9,0-1.9,0-2.8s0-1.3,0-1.9c1-6.3,11-14.7,16.8-17.3s4.2-1.5,6.5-1.4Z"/>
      </g>
      <g>
        <path class="st22" d="M90.6,272.7c5.9,3.6,11.8,7.2,17.9,10.6,5.2,2.9,12.2,4.3,15.8,9.5,6.8,9.8-7.6,18.1-5.6,21,.3.4,8,2.3,9.3,2.8,32.5,11.8,66.1,17.5,100.8,18.7.5-1.8-1.6-3-1.8-4.4-.2-1.6,1.7-2,1.8-2.2,1,1.8,1.3,3.7,1.9,5.6.1.5-.2,1.5,0,1.8.2.2,1.3,0,1.8,0,.9,0,1.9,0,2.8,0,0,.6,1,1.9.9,2.8-41.1-.4-86.3-8-124.4-23.6-4.8-2-17.8-7.3-20.2-11.6-1.7-3.1-.4-3-.1-5,3.3-1.8,9.2-1.3,11.2,1.9l-8.4-.9c-3.6,3.4,17.5,12.8,19.6,11.7.4-.2,5.8-6.8,6.4-7.7,7-11.1-4.9-11.9-11-15.2-1-.5-1.3-1.4-1.5-1.7-3-3.6-14.1-11.4-44.7-28.2-.8,12.1-1.6,24.3-2.4,36.4l-40.2,7c7.9,7.6,17,14.6,26.2,20.5,2.3,1.5,11.6,7.3,13.4,7.1,2.5-.2,10.3-7.7,11.6-9.9,3.8-6.4,5.4-21.3,11.8-25.6,11.3-7.4,21.6,2.8,32.2,4.7.6-3.4-2.7-4.6-4.7-6.5,2.1.7,6.5.7,8,3.7.7,1.4.3,5.3-1.1,5.6-9.5,2.3-17-8.8-28.3-5.6-1.1.3-1.8,0-3.3.9-6.3,4.2-7.8,20.2-13.1,27-6.5,8.5-19.3,11.5-19.1,23.9,0,6.9,5.3,10.3,10.8,13.6,23,13.5,58.4,22.7,84.5,28.5,78.6,17.4,171.3,12.8,247.9-15.4,9.4-3.5,35.7-13.1,40.6-21,8-13-12.8-22.1-18.5-30.1-8-11.1-4.6-31.1-23.5-27.4-4.4.9-20.5,9.5-22.3,4.1-1.7-5,3.8-6,6.4-8.7,2.5,2.4-4,3.9-2.8,7.5,7.8-.8,13.8-7.1,22.1-7.4,18-.6,15.6,17.9,21.9,28.3,1.3,2.1,9.2,10.6,11.5,10.5,2.8,0,41.4-26.9,39.7-28.6l-39.8-7.5-2.3-35.5-25.8,17.6c-8.5,4.1-16.6,9.7-24.6,14.2-.4.2-1.9,0-2.8.4-12.9,7.6-4.3,12.8,2.4,20.9,1.5.4,16.8-7,18.2-8.7,2.8-3.6-.9-3-1.9-5.2,5.2-.5,8.3,1.5,5.1,6.5-4.5,7-40.3,18.6-49.7,21.3-26,7.5-59,13.1-86.1,13.3,1.2-1,0-2.4,0-2.8,19.6-2.8,39.5-3.8,59-7.7,14.4-2.9,26.4-6.9,40-11.9,1.7-.6,10.8-2.4,11.2-2.8-.3-3.9-4.6-5.5-6.4-9-7.1-13.8,6.2-16,15.1-21,7.8-4.4,15.5-9,23-13.8,3.3-2.1,6.9-3.8,10.2-6.1,4.1-2.9,8.8-8.2,12.6-10.7.9-.6,2.5-1.4,3.3-.9,2.5,1.7,1.5,34.6,3.8,40.1,3.1,0,7.6.1,13,1,5.4.9,4.9,1.4,11.5,2.8,9,1.8,15,1.9,15.6,4.5,0,.2,0,.4,0,.7-.1.6-7.6,7.8-8.9,8.9-1.4,1.3-4.4,3.3-10,7.6-6.3,4.9-5.3,4.5-7.7,6.1-8.2,5.6-13.3,5.3-13.6,8.3-.4,3.2,3.3,6.4,4.6,10.2.2.5.3,1.2.4,2.1.5,5.6-2.2,10-3.1,11.4-2.4,3.8-5.6,5.9-9.8,8.3-3.3,1.9-13,6.8-19.1,9.3-98.4,41.1-228.2,39.3-326.8,0-4.8-1.9-9.1-3.2-10.5-3.8-7.5-3.6-16-7.2-19.4-15.5-.8-1.9-1.7-5.2-1.3-9.7,1.2-3.1,2.4-6.2,3.5-9.3.5-1.1.5-1.9.5-2.3-.3-4.9-9.1-6.7-18-13.3-1.3-1-2.6-2-4.8-3.5-3-2-4.4-2.6-7.5-5.2-3.8-3.2-7.4-7.5-10.8-11.2.9-.2,2.3-.5,4-.8,4.5-.8,7.7-.8,9.3-1.3,4.5-1.3,9.4-2.5,14.7-3.5,4.6-.9,9-1.5,13-1.9l3.8-40.1s2.2.1,3.3.9c4.8,3.1,10.3,9,15.4,12.6,3.9,2.7,8.1,4.7,12.1,7.1Z"/>
        <path class="st10" d="M395.9,296c18.9-3.7,15.5,16.3,23.5,27.4,5.8,8,26.6,17,18.5,30.1-4.9,7.9-31.2,17.5-40.6,21-76.6,28.2-169.3,32.8-247.9,15.4-26.2-5.8-61.5-14.9-84.5-28.5-5.5-3.2-10.7-6.6-10.8-13.6-.2-12.4,12.6-15.4,19.1-23.9,5.3-6.9,6.9-22.9,13.1-27,1.4-1,2.2-.6,3.3-.9,2.3-.5,2.1.6,1.9,2.8-.3,2-1.6,1.9.1,5,2.4,4.3,15.3,9.6,20.2,11.6,38.2,15.6,83.3,23.2,124.4,23.6,1.2,0,2.5,0,3.7,0,.9,1.1,1.9,1.1,2.8,0,1.2.1,2.6-.2,3.7,0,2,.3,7.2,3,6.5-.9,4.4,1.1,7.7,1,12.1.9,27.1-.2,60.1-5.9,86.1-13.3,9.4-2.7,45.2-14.3,49.7-21.3,3.2-4.9.1-7-5.1-6.5-.2-.4.1-1.3,0-1.9ZM139.9,339.2c2.4,2.4-1.1,13.6,6.1,11.8s6-14.1,3.5-16.2l-36.2-9.6c-4.1-.5-8.6,14.4-4.9,16.2,7.8,3.8,6.8-12.3,15.9-6.5l-8.6,32.5c-1,2.7-4.7.8-6.5,1.9s-1.3,4.2-.7,5.1,20.2,6.3,21.9,3.9c3.5-5-3.7-5.3-4.1-7.1s1.3-6,1.6-7.5c.7-3.1,5.7-24.6,6.7-25.5s4.5.3,5.3,1.1ZM378.3,332.6c.3-.3,8.6-2.8,3.7-6.2s-20.4,3.2-21.6,4.6-.7,4.5.2,5.1c1.6,1,6.8-1.6,7.4,2.4.5,4.3,9.1,29.8,7.9,31.4s-4.5,1-5.1,3.4,1.4,3.8,3.2,4.1,15.4-3.4,17.2-4.2c3.4-1.5,4.1-5.2.9-6.6-1.7-.8-4.7,2.1-5.8-1.6-.6-4.3-9.7-30.5-8.1-32.3ZM340.1,350.9c4.4,4.4,15.1-2.7,10.1-11.5-6.1-10.8-36.4-3.9-29.7,14.8s25.1,9.2,27.4,16.5c3.4,10.6-15.3,11.7-13.4,3.6s3.1-2.7.8-4.9c-7.6-7.2-18.2,10.2-5.5,15.8,13.9,6.1,37.1-6.8,26.4-22.7-6.2-9.3-22.5-7.7-25.7-12.6-5-7.6,11-11.9,11.2-5.5s-5.3,2.8-1.5,6.6ZM196.9,385.8c-.3-.4-2.6-.6-3.6-1.5-2.4-2.3-7.2-28.5-8.9-34.1-2.1-7-4.4-11.1-12.4-11.9-6.7-.7-6.1,7.2-.2,7.3-5.6,10.9-12.1,22.4-19.7,32.1-3.5.7-8,1.7-5.1,6.2s17.4,3.6,19.2,2.3c3.9-2.7-2.5-7.5-5.6-6.1-.6-.6,3-7.4,5-7.4s12.9,1.6,13.5,2c1,.6,1.5,7.9,1.1,8.3s-4.7-1-5.5,1.5.3,3.8,1.8,4.6,16.3,2.7,18.2,2.3,3.2-3.8,2.2-5.5ZM305.5,348.4c.6-.9,5.6-.4,6.4-2.6s-.6-4.3-2.5-4.9-13.8.6-15.6.9c-2.6.4-4.9,1.9-4.1,4.9s6.7,2,7.3,2.6c1.2,1.1,1.9,23.9,2.9,27.5,0,7.6-12.8,11.3-17.6,6.8-4.6-4.4-2.9-24.2-4.7-30.8.4-4.1,4.5-1.6,5.9-4.4s0-4.1-.7-4.5c-1.2-.7-21.6.9-22.1,1.9s-.3,5.3-.1,5.5c.4.4,5.3-1.1,6.4,2.5,1.9,9-.4,28.2,6.3,34.8,8.4,8.3,30.3,5.4,33.4-6.7s-2.7-30.9-1.1-33.3ZM224.1,351.1c4.6,2.1,9.4-5,5-6.4s-17.1-1.3-18.6-1.1-2.6,0-3.1,1.6c-1.9,5.7,2.9,4.3,4.6,5.5,2.8,2-.5,29.4,0,34.5-.2,1-8,0-6.4,5.5.2.7,1.9,2.5,2.2,2.5h19.6c1.4,0,2-4.3,1-5.7s-5.2-.6-5.2-.9v-13.1c1.6-.3,1.9.5,2.8,1.4,5.2,5.3,9.6,12.7,14.7,18.2,5.2.9,17.5,3.8,15.1-4.6-9.9-2.8-16.6-14.5-23.3-22.1,0-1.7,11.6-12.4,13.7-13.4,3.4-1.6,9.3,0,9.6-4.3s-.7-3-1-3.2c-.8-.5-17.8-1.2-18.6-.7-2.8,2,.9,6.3.6,7.1-1.1,2.5-10.3,9.5-12.7,12.1v-13.1Z"/>
        <path class="st10" d="M380,290.4c8-4.5,16.1-10,24.6-14.2l25.8-17.6,2.3,35.5,39.8,7.5c1.8,1.7-36.9,28.5-39.7,28.6-2.3,0-10.2-8.4-11.5-10.5-6.4-10.4-4-28.9-21.9-28.3-8.3.3-14.3,6.6-22.1,7.4-1.2-3.5,5.3-5.1,2.8-7.5v-.9Z"/>
        <path class="st10" d="M109.3,288.6l-.9.5c-.6,2.3.7,2.5,2.8,3.3,1.9,1.9,5.2,3.2,4.7,6.5-10.6-1.9-21-12.1-32.2-4.7-6.4,4.2-8,19.1-11.8,25.6s-9.1,9.7-11.6,9.9-11.1-5.6-13.4-7.1c-9.3-5.9-18.3-12.9-26.2-20.5l40.2-7c-1.9-4.7.7-9.7.9-14.5s-.7-13,0-18.7.1-2.4,1.5-3.2c14.1,11,29.2,19.5,44.7,28.2.8.5,1.3,1.6,1.5,1.7Z"/>
        <path class="st15" d="M109.3,288.6c6.1,3.4,18,4.2,11,15.2s-5.9,7.5-6.4,7.7c-2.1,1.1-23.2-8.3-19.6-11.7l8.4.9c-2-3.1-7.9-3.6-11.2-1.9.3-2.2.4-3.3-1.9-2.8,11.3-3.2,18.8,7.9,28.3,5.6,1.4-.3,1.8-4.2,1.1-5.6-1.5-3-5.9-3-8-3.7s-3.4-1-2.8-3.3l.9-.5Z"/>
        <path class="st15" d="M380,290.4v.9c-2.6,2.8-8.1,3.7-6.4,8.7s18-3.2,22.3-4.1c.1.6-.2,1.5,0,1.9,1,2.2,4.7,1.6,1.9,5.2-1.3,1.7-16.6,9.1-18.2,8.7-6.7-8.1-15.3-13.4-2.4-20.9s2.4-.2,2.8-.4Z"/>
        <path class="st22" d="M224.1,351.1v13.1c2.4-2.6,11.5-9.6,12.7-12.1s-3.4-5.1-.6-7.1,17.8.2,18.6.7,1.1,2.6,1,3.2c-.3,4.3-6.3,2.7-9.6,4.3-2.2,1-13.7,11.7-13.7,13.4,6.6,7.6,13.3,19.2,23.3,22.1,2.4,8.4-9.9,5.5-15.1,4.6-5.1-5.5-9.5-12.9-14.7-18.2s-1.2-1.8-2.8-1.4v13.1c0,.3,4.1-.7,5.2.9s.4,5.7-1,5.7h-19.6c-.3,0-2-1.9-2.2-2.5-1.6-5.5,6.3-4.4,6.4-5.5-.6-5.1,2.8-32.5,0-34.5s-6.5.2-4.6-5.5,1.7-1.4,3.1-1.6,17.7.8,18.6,1.1c4.4,1.4-.3,8.5-5,6.4Z"/>
        <path class="st22" d="M305.5,348.4c-1.6,2.5,2.9,26.4,1.1,33.3-3.2,12.1-25,15.1-33.4,6.7-6.6-6.6-4.4-25.8-6.3-34.8-1-3.6-6-2.2-6.4-2.5s-.2-4.9.1-5.5c.6-1,21-2.6,22.1-1.9s1.2,3.4.7,4.5c-1.4,2.8-5.5.3-5.9,4.4,1.7,6.6,0,26.5,4.7,30.8,4.8,4.5,17.6.8,17.6-6.8-1.1-3.6-1.7-26.4-2.9-27.5s-6.3,1.2-7.3-2.6,1.5-4.5,4.1-4.9,14.7-1.1,15.6-.9c1.9.6,3.1,3,2.5,4.9s-5.8,1.6-6.4,2.6Z"/>
        <path class="st22" d="M340.1,350.9c-3.8-3.8,1.6-4.9,1.5-6.6-.1-6.4-16.1-2.1-11.2,5.5,3.2,4.9,19.5,3.3,25.7,12.6,10.7,16-12.6,28.8-26.4,22.7-12.7-5.6-2.1-23,5.5-15.8,2.4,2.2-.4,3.4-.8,4.9-1.9,8.1,16.9,7,13.4-3.6s-22.9-3.9-27.4-16.5c-6.7-18.7,23.6-25.6,29.7-14.8,5,8.8-5.7,15.9-10.1,11.5Z"/>
        <path class="st22" d="M196.9,385.8c1,1.6.3,5-2.2,5.5s-16.6-1.6-18.2-2.3-2.4-2.9-1.8-4.6c.8-2.5,5.1-1.1,5.5-1.5s-.1-7.7-1.1-8.3-12.5-2-13.5-2c-2,0-5.7,6.8-5,7.4,3.2-1.3,9.5,3.5,5.6,6.1s-18.1-.6-19.2-2.3c-2.9-4.5,1.6-5.5,5.1-6.2,7.5-9.8,14.1-21.2,19.7-32.1-5.9,0-6.5-8,.2-7.3,8.1.8,10.3,4.9,12.4,11.9,1.7,5.6,6.5,31.8,8.9,34.1s3.3,1.1,3.6,1.5ZM175.6,356.7c-1.6-1.9-8.2,9.7-7.5,10.3l9.3.9-1.9-11.2Z"/>
        <path class="st22" d="M139.9,339.2c-.8-.8-4.8-1.6-5.3-1.1-1,.9-6,22.4-6.7,25.5s-1.8,6.7-1.6,7.5c.4,1.9,7.6,2.1,4.1,7.1-1.6,2.4-21.3-3-21.9-3.9s-.3-4.4.7-5.1c1.7-1.1,5.5.7,6.5-1.9l8.6-32.5c-9.1-5.7-8,10.4-15.9,6.5-3.7-1.8.8-16.7,4.9-16.2l36.2,9.6c2.5,2.1-.2,15.4-3.5,16.2-7.2,1.8-3.7-9.4-6.1-11.8Z"/>
        <path class="st22" d="M378.3,332.6c-1.6,1.8,7.5,28,8.1,32.3,1.1,3.7,4.1.8,5.8,1.6,3.1,1.4,2.5,5-.9,6.6-1.9.8-15.7,4.4-17.2,4.2s-3.7-2-3.2-4.1,4.4-2.3,5.1-3.4c1.1-1.6-7.5-27.1-7.9-31.4-.6-3.9-5.8-1.4-7.4-2.4s-1.3-3.8-.2-5.1,19.7-5.9,21.6-4.6c4.9,3.4-3.4,5.9-3.7,6.2Z"/>
        <path class="st22" d="M248.4,336.2c.4-.6,1-1.1.9-1.9h.9c-.4,5.2,0,3.1,2.8,3.7.6,4-4.5,1.2-6.5.9.6-.9,1.2-1.9,1.9-2.8Z"/>
        <path class="st22" d="M242.8,339c-.9,1.1-1.9,1.1-2.8,0,.4,0,1-.2,2.8,0Z"/>
        <path class="st16" d="M306.3,409.5c.4-2.4,3.5-3.4,5.5-2.2s4.1,10.7,6.2,12c1.5,0,5.5-11.5,6.2-12,1.2-.8,5.5,0,5.5,1.2v18.7c0,.8-2.1,1.7-3.3,1.4-3-.9-.4-13-1.9-13.1-2.3,2.7-2.6,9.4-6.5,9.4s-3.8-7.1-7-9.4c-.5,2.6,1.2,12.2-1.4,13.1s-3.3-.6-3.3-1.4c0-5-.8-13.3,0-17.7Z"/>
        <path class="st16" d="M281.1,409.9c-.8,1.1-8.4,1-10.3.9v4.1c.2,1.5,8.2-.3,8.4,1,.8,5.7-3.9,2.5-8.4,3.3v5.6c.6.6,11.1-1.6,10.3,2.3-3,4.1-9.3,2-13.9,2.2-.8-1.6-1-3.2-1.1-5s0-15.8.4-16.4c1.2-1.7,17.2-1.7,14.5,1.9Z"/>
        <path class="st16" d="M197,428.6c1-6.2-.8-14.9,0-21.5h14c1.5,6.3-4.8,3-9.3,3.7.9,6.6,2.5,4.5,8.4,4.7,1.4,6.2-4.2,3.1-8.4,3.7v5.1s9.3.5,9.3.5c-.2,1.1.3,2.9,0,3.7h-14Z"/>
        <path class="st16" d="M246.5,407.1c5.4,2.2,16.1-2,15.6,6.9s-3,4.6-3.3,5.9c-.4,1.9,3.7,7.7,2.6,8.7s-3.2,0-4.2-.9c-1.6-1.4-2.1-6.7-3.7-7.5-4.4-2-.8,6.3-3.2,8s-3.8,0-3.8-1v-20.1ZM257.7,413.7c0-2.2-1.8-4-4-4s-4,1.8-4,4,1.8,4,4,4,4-1.8,4-4Z"/>
        <path class="st16" d="M229,412c-3,3-1.6,14.1,5.6,12.7,3.4-.7,3.2-5.3,8.2-3.6-1.4,6.1-5.4,8.4-11.6,7.4-12.8-2.1-10.5-26.8,7-21,2.8.9,6.8,7.1,2.3,7.1s-6.8-7.3-11.4-2.6Z"/>
        <path class="st16" d="M191.2,409.3c1.2,1.2,1.2,3.7,1.2,5.4-3.2.9-4.2-2.9-6.3-3.6-11.3-3.4-10.8,16.6-.2,13.4s1.7-1.9,2.3-2.4c6.3-4.9,5.9,6.3-3.8,6.6-13.9.4-13.3-18.6-5.2-21.1,3-.9,9.8-.6,11.9,1.7Z"/>
        <path class="st16" d="M295.9,407.3c.9.7,7.4,20.6,6.6,21.4-2.5,2.6-5.2-5.3-6.1-5.5s-7.5.7-7.8,1c-.7.6-.5,5.8-4.8,4.5-.9-.9,6.3-20.6,8.1-21.3s3.5-.4,4,0ZM294.1,413.7c-1.9-1.9-3.7,5.6-3.7,6.5h5.6c-.2-1.1-1.6-6.3-1.9-6.5Z"/>
        <path class="st16" d="M169,407.1v21.5c-1.1.4-3.7-.4-3.7-1.4v-20.1c0-.2,3.1.1,3.7,0Z"/>
        <path class="st10" d="M211,428.6c-.7,2-12.4.4-14.9.9-.2-.7.9-.8.9-.9h14Z"/>
        <path class="st15" d="M175.6,356.7l1.9,11.2-9.3-.9c-.7-.6,5.8-12.2,7.5-10.3Z"/>
      </g>
    </g>
    <path class="st22" d="M50.6,344.7"/>
  </g>
  <g id="Layer_4" class="st2">
    <image width="500" height="500" transform="translate(-266.1 20.5) scale(.5)" xlink:href="409760934_122093933516161156_4866938019587888782_n.jpg"/>
  </g>
  <g id="Layer_6">
    <path class="st22" d="M221.8,335s17.4,1.6,28.8,1.4,24.7.4,36.7-2.8c1.3,1.2-7,3.7-7,3.7,0,0,3.2,2.6-21.6,2.6s-15.7.6-38.3-1.3"/>
  </g>
</svg>